<svg width="313" height="978" viewBox="0 0 313 978" fill="none" xmlns="http://www.w3.org/2000/svg">
<path fill-rule="evenodd" clip-rule="evenodd" d="M155.945 81.4031C155.945 58.9242 163.558 39.7373 178.783 23.8424C194.008 7.94747 212.386 0 233.918 0C255.45 0 273.828 7.94747 289.053 23.8424C304.278 39.7373 311.891 58.9242 311.891 81.4031C311.891 103.882 304.278 123.069 289.053 138.964C273.828 154.859 255.45 162.806 233.918 162.806C212.386 162.806 194.008 154.859 178.783 138.964C163.558 123.069 155.945 103.882 155.945 81.4031Z" fill="#69315E"/>
<path fill-rule="evenodd" clip-rule="evenodd" d="M155.945 570.984C155.945 548.505 163.558 529.318 178.783 513.423C194.008 497.529 212.386 489.581 233.918 489.581C255.45 489.581 273.828 497.529 289.053 513.423C304.278 529.318 311.891 548.505 311.891 570.984C311.891 593.463 304.278 612.65 289.053 628.545C273.828 644.44 255.45 652.387 233.918 652.387C212.386 652.387 194.008 644.44 178.783 628.545C163.558 612.65 155.945 593.463 155.945 570.984Z" fill="#69315E"/>
<path fill-rule="evenodd" clip-rule="evenodd" d="M0 0H77.9727C121.036 0 155.945 36.4454 155.945 81.4031V162.806H0V0Z" fill="#EDDFA6"/>
<path fill-rule="evenodd" clip-rule="evenodd" d="M0 489.581H77.9727C121.036 489.581 155.945 526.026 155.945 570.984V652.387H0V489.581Z" fill="#EDDFA6"/>
<path fill-rule="evenodd" clip-rule="evenodd" d="M79.0869 325.612C122.15 325.612 157.06 362.058 157.06 407.015V488.418H1.11426V407.015C1.11425 362.058 36.0238 325.612 79.0869 325.612Z" fill="#B1B4CA"/>
<path fill-rule="evenodd" clip-rule="evenodd" d="M79.0869 815.193C122.15 815.193 157.06 851.639 157.06 896.596V978H1.11426V896.596C1.11425 851.639 36.0238 815.193 79.0869 815.193Z" fill="#B1B4CA"/>
<path fill-rule="evenodd" clip-rule="evenodd" d="M235.031 325.612H313.004V407.015C313.004 451.973 278.094 488.418 235.031 488.418H157.059V407.015C157.059 362.058 191.968 325.612 235.031 325.612Z" fill="#EDDFA6"/>
<path fill-rule="evenodd" clip-rule="evenodd" d="M235.031 815.193H313.004V896.596C313.004 941.554 278.094 978 235.031 978H157.059V896.596C157.059 851.639 191.968 815.193 235.031 815.193Z" fill="#EDDFA6"/>
<path fill-rule="evenodd" clip-rule="evenodd" d="M0 162.806H155.945V244.209C155.945 289.167 121.036 325.612 77.9727 325.612H0V162.806Z" fill="#69315E"/>
<path fill-rule="evenodd" clip-rule="evenodd" d="M0 652.388H155.945V733.791C155.945 778.748 121.036 815.194 77.9727 815.194H0V652.388Z" fill="#69315E"/>
<path fill-rule="evenodd" clip-rule="evenodd" d="M155.945 162.806H311.891V325.612H233.918C190.855 325.612 155.945 289.167 155.945 244.209V162.806Z" fill="#B1B4CA"/>
<path fill-rule="evenodd" clip-rule="evenodd" d="M155.945 652.388H311.891V815.194H233.918C190.855 815.194 155.945 778.748 155.945 733.791V652.388Z" fill="#B1B4CA"/>
</svg>
