<svg width="313" height="978" viewBox="0 0 313 978" fill="none" xmlns="http://www.w3.org/2000/svg">
<path fill-rule="evenodd" clip-rule="evenodd" d="M1.11426 81.4031C1.11426 58.9242 8.72681 39.7373 23.9519 23.8424C39.177 7.94747 57.5554 0 79.0869 0C100.618 0 118.997 7.94747 134.222 23.8424C149.447 39.7373 157.06 58.9242 157.06 81.4031C157.06 103.882 149.447 123.069 134.222 138.964C118.997 154.859 100.618 162.806 79.0869 162.806C57.5554 162.806 39.177 154.859 23.9519 138.964C8.72681 123.069 1.11426 103.882 1.11426 81.4031Z" fill="#69315E"/>
<path fill-rule="evenodd" clip-rule="evenodd" d="M1.11426 570.985C1.11426 548.506 8.72681 529.319 23.9519 513.424C39.177 497.529 57.5554 489.582 79.0869 489.582C100.618 489.582 118.997 497.529 134.222 513.424C149.447 529.319 157.06 548.506 157.06 570.985C157.06 593.463 149.447 612.65 134.222 628.545C118.997 644.44 100.618 652.388 79.0869 652.388C57.5554 652.388 39.177 644.44 23.9519 628.545C8.72681 612.65 1.11426 593.463 1.11426 570.985Z" fill="#69315E"/>
<path fill-rule="evenodd" clip-rule="evenodd" d="M235.032 0H313.005V162.806H157.06V81.4031C157.06 36.4454 191.969 0 235.032 0Z" fill="#EDDFA6"/>
<path fill-rule="evenodd" clip-rule="evenodd" d="M235.032 489.582H313.005V652.388H157.06V570.985C157.06 526.027 191.969 489.582 235.032 489.582Z" fill="#EDDFA6"/>
<path fill-rule="evenodd" clip-rule="evenodd" d="M233.919 325.613C276.982 325.613 311.892 362.058 311.892 407.016V488.419H155.946V407.016C155.946 362.058 190.856 325.613 233.919 325.613Z" fill="#B1B4CA"/>
<path fill-rule="evenodd" clip-rule="evenodd" d="M233.919 815.194C276.982 815.194 311.892 851.639 311.892 896.597V978H155.946V896.597C155.946 851.639 190.856 815.194 233.919 815.194Z" fill="#B1B4CA"/>
<path fill-rule="evenodd" clip-rule="evenodd" d="M0.000976562 325.613H77.9736C121.037 325.613 155.946 362.058 155.946 407.016V488.419H77.9736C34.9105 488.419 0.000976562 451.974 0.000976562 407.016V325.613Z" fill="#EDDFA6"/>
<path fill-rule="evenodd" clip-rule="evenodd" d="M0.000976562 815.194H77.9736C121.037 815.194 155.946 851.639 155.946 896.597V978H77.9736C34.9105 978 0.000976562 941.555 0.000976562 896.597V815.194Z" fill="#EDDFA6"/>
<path fill-rule="evenodd" clip-rule="evenodd" d="M157.06 162.807H313.005V325.613H235.032C191.969 325.613 157.06 289.167 157.06 244.21V162.807Z" fill="#69315E"/>
<path fill-rule="evenodd" clip-rule="evenodd" d="M157.06 652.387H313.005V815.193H235.032C191.969 815.193 157.06 778.748 157.06 733.79V652.387Z" fill="#69315E"/>
<path fill-rule="evenodd" clip-rule="evenodd" d="M1.11426 162.807H157.06V244.21C157.06 289.167 122.15 325.613 79.0869 325.613H1.11426V162.807Z" fill="#B1B4CA"/>
<path fill-rule="evenodd" clip-rule="evenodd" d="M1.11426 652.387H157.06V733.79C157.06 778.748 122.15 815.193 79.0869 815.193H1.11426V652.387Z" fill="#B1B4CA"/>
</svg>
