<svg width="502" height="509" viewBox="0 0 502 509" fill="none" xmlns="http://www.w3.org/2000/svg">
<path d="M189.992 38.135V85.9745C189.998 86.834 189.814 87.686 189.45 88.4816C189.086 89.2772 188.549 90.0007 187.871 90.6103C187.193 91.22 186.387 91.7038 185.499 92.0339C184.61 92.364 183.658 92.534 182.696 92.534H169.108L162.131 102.312C162.054 102.444 161.937 102.554 161.795 102.63C161.653 102.707 161.49 102.748 161.324 102.748C161.158 102.748 160.995 102.707 160.852 102.63C160.71 102.554 160.594 102.444 160.517 102.312L153.996 92.534H94.9911C93.0562 92.534 91.2004 91.8472 89.8322 90.6247C88.464 89.4022 87.6953 87.7441 87.6953 86.0152V38.135C87.6953 36.4061 88.464 34.7481 89.8322 33.5256C91.2004 32.3031 93.0562 31.6163 94.9911 31.6163H182.669C183.629 31.613 184.581 31.7793 185.469 32.1054C186.357 32.4316 187.165 32.9112 187.845 33.5169C188.526 34.1225 189.066 34.8422 189.434 35.6347C189.802 36.4272 189.992 37.2769 189.992 38.135Z" fill="white"/>
<path d="M157.421 68.7425V32.3516L151.411 31.7567L148.347 78.5288L144.48 80.3133L141.288 80.794L134.53 80.6148L136.245 80.9407L124.645 78.7814L95.6619 79.5962C94.7636 79.5941 93.9026 79.2754 93.2657 78.7094C92.6288 78.1434 92.2675 77.3758 92.2603 76.5732V25.238C92.2577 24.5398 92.384 23.846 92.6342 23.1846C91.1257 23.5872 89.8035 24.415 88.865 25.5444C87.9264 26.6738 87.4219 28.0441 87.4268 29.4507V77.2902C87.4268 79.0191 88.1955 80.6772 89.5637 81.8997C90.9319 83.1222 92.7876 83.809 94.7226 83.809H109.077L130.408 83.7682L137.868 83.8334H146.696C150.162 83.8334 155.697 83.8334 157.421 81.12C159.145 78.4066 157.421 73.2404 157.421 68.7425Z" fill="#B1B4CA"/>
<path d="M97.2524 82.9096C99.8614 82.9096 101.976 81.0198 101.976 78.6887C101.976 76.3575 99.8614 74.4678 97.2524 74.4678C94.6433 74.4678 92.5283 76.3575 92.5283 78.6887C92.5283 81.0198 94.6433 82.9096 97.2524 82.9096Z" fill="#B1B4CA"/>
<path d="M105.673 77.0322C106.837 77.0322 107.78 76.1894 107.78 75.1499C107.78 74.1103 106.837 73.2676 105.673 73.2676C104.51 73.2676 103.566 74.1103 103.566 75.1499C103.566 76.1894 104.51 77.0322 105.673 77.0322Z" fill="#B1B4CA"/>
<path d="M149.004 79.4191C149.905 79.4191 150.636 78.7661 150.636 77.9605C150.636 77.155 149.905 76.502 149.004 76.502C148.102 76.502 147.371 77.155 147.371 77.9605C147.371 78.7661 148.102 79.4191 149.004 79.4191Z" fill="#B1B4CA"/>
<path d="M180.904 48.8877H103.304" stroke="#B1B4CA" stroke-width="2.73593" stroke-miterlimit="10" stroke-linecap="round"/>
<path d="M180.903 59.9775H151.638" stroke="#B1B4CA" stroke-width="2.73593" stroke-miterlimit="10" stroke-linecap="round"/>
<path d="M180.897 71.0703H137.04" stroke="#B1B4CA" stroke-width="2.73593" stroke-miterlimit="10" stroke-linecap="round"/>
<path d="M190.528 35.1977V87.9751C190.528 89.0557 190.047 90.092 189.192 90.856C188.337 91.6201 187.177 92.0493 185.968 92.0493H169.634L161.837 103.001L154.541 92.0493H92.7454C91.5361 92.0493 90.3763 91.6201 89.5211 90.856C88.666 90.092 88.1855 89.0557 88.1855 87.9751V37.6829C88.1855 35.9541 88.9542 34.296 90.3224 33.0735C91.6907 31.851 93.5464 31.1642 95.4814 31.1642H185.931C187.139 31.1555 188.301 31.5753 189.163 32.3315C190.025 33.0877 190.516 34.1185 190.528 35.1977Z" stroke="#303030" stroke-width="3" stroke-miterlimit="10"/>
<path d="M50.3809 26.0068V73.83C50.3929 75.5626 51.1717 77.2206 52.5472 78.4419C53.9226 79.6633 55.7831 80.3488 57.7223 80.3487H71.2834L78.2509 90.1268C78.337 90.2498 78.4567 90.3511 78.5987 90.4213C78.7406 90.4916 78.9003 90.5285 79.0626 90.5285C79.2249 90.5285 79.3845 90.4916 79.5265 90.4213C79.6684 90.3511 79.7881 90.2498 79.8742 90.1268L86.3949 80.3487H145.409C147.344 80.3487 149.2 79.6619 150.568 78.4394C151.936 77.2169 152.705 75.5588 152.705 73.83V26.0149C152.705 24.286 151.936 22.628 150.568 21.4055C149.2 20.183 147.344 19.4962 145.409 19.4962H57.7132C56.7528 19.4919 55.8009 19.6571 54.9121 19.9822C54.0233 20.3074 53.2151 20.7862 52.5339 21.391C51.8526 21.9959 51.3118 22.715 50.9423 23.5071C50.5728 24.2992 50.382 25.1487 50.3809 26.0068Z" fill="white"/>
<path d="M97.2086 74.7339H142.853C143.758 74.7339 144.625 74.4128 145.265 73.8413C145.904 73.2697 146.264 72.4946 146.264 71.6863V20.3512C146.249 20.1384 146.303 19.9262 146.419 19.7399C146.535 19.5535 146.708 19.4007 146.918 19.2996C147.128 19.1985 147.366 19.1532 147.604 19.1691C147.842 19.1851 148.07 19.2616 148.261 19.3897C149.145 19.9994 149.86 20.7823 150.352 21.678C150.843 22.5736 151.099 23.5582 151.097 24.5558V77.8303C151.097 78.1285 150.965 78.4145 150.729 78.6254C150.493 78.8363 150.173 78.9547 149.839 78.9547H129.438L108.107 78.8733L100.647 78.9385H87.0947" fill="#D9DBE5"/>
<path d="M143.124 75.6478C145.733 75.6478 147.848 73.7581 147.848 71.4269C147.848 69.0958 145.733 67.2061 143.124 67.2061C140.515 67.2061 138.4 69.0958 138.4 71.4269C138.4 73.7581 140.515 75.6478 143.124 75.6478Z" fill="#B1B4CA"/>
<path d="M134.705 69.7831C135.869 69.7831 136.812 68.9404 136.812 67.9008C136.812 66.8613 135.869 66.0186 134.705 66.0186C133.542 66.0186 132.599 66.8613 132.599 67.9008C132.599 68.9404 133.542 69.7831 134.705 69.7831Z" fill="#B1B4CA"/>
<path d="M97.8953 76.7157C99.915 76.7157 101.552 75.2528 101.552 73.4482C101.552 71.6436 99.915 70.1807 97.8953 70.1807C95.8756 70.1807 94.2383 71.6436 94.2383 73.4482C94.2383 75.2528 95.8756 76.7157 97.8953 76.7157Z" fill="#B1B4CA"/>
<path d="M91.3766 72.1691C92.2782 72.1691 93.009 71.5161 93.009 70.7105C93.009 69.905 92.2782 69.252 91.3766 69.252C90.475 69.252 89.7441 69.905 89.7441 70.7105C89.7441 71.5161 90.475 72.1691 91.3766 72.1691Z" fill="#B1B4CA"/>
<path d="M59.4746 36.75H137.075" stroke="#B1B4CA" stroke-width="2.73593" stroke-miterlimit="10" stroke-linecap="round"/>
<path d="M59.4746 47.8369H88.74" stroke="#B1B4CA" stroke-width="2.73593" stroke-miterlimit="10" stroke-linecap="round"/>
<path d="M59.4746 58.9326H103.332" stroke="#B1B4CA" stroke-width="2.73593" stroke-miterlimit="10" stroke-linecap="round"/>
<path d="M49.8496 20.1082V78.777C49.8496 78.9243 49.8822 79.0701 49.9456 79.2061C50.0089 79.342 50.1018 79.4655 50.2188 79.5692C50.3358 79.673 50.4746 79.7551 50.6272 79.8107C50.7798 79.8663 50.9433 79.8944 51.1081 79.8933H70.0499C70.2612 79.8932 70.4691 79.941 70.6541 80.0322C70.8391 80.1234 70.9952 80.255 71.1078 80.4148L78.5769 90.8611L85.5171 80.4555C85.6293 80.29 85.7871 80.1528 85.9755 80.0573C86.1639 79.9617 86.3765 79.9109 86.5932 79.9096H150.97C151.135 79.9107 151.298 79.8826 151.451 79.827C151.603 79.7714 151.742 79.6893 151.859 79.5855C151.976 79.4818 152.069 79.3583 152.132 79.2224C152.196 79.0864 152.228 78.9406 152.228 78.7933V20.1245C152.228 19.8263 152.096 19.5402 151.86 19.3294C151.624 19.1185 151.303 19 150.97 19H51.1081C50.7775 19 50.4601 19.1162 50.2246 19.3236C49.9891 19.5309 49.8544 19.8128 49.8496 20.1082Z" stroke="#303030" stroke-width="3" stroke-miterlimit="10"/>
<path d="M291.43 172.076L320.757 136.714L350.085 172.076V309.014" stroke="#B1B4CA" stroke-width="1.79247" stroke-miterlimit="10"/>
<g opacity="0.81">
<path opacity="0.81" d="M339.242 177.986H331.361V185.867H339.242V177.986Z" stroke="#B1B4CA" stroke-width="1.79247" stroke-miterlimit="10"/>
<path opacity="0.81" d="M324.338 177.986H316.457V185.867H324.338V177.986Z" stroke="#B1B4CA" stroke-width="1.79247" stroke-miterlimit="10"/>
<path opacity="0.81" d="M309.439 177.986H301.559V185.867H309.439V177.986Z" stroke="#B1B4CA" stroke-width="1.79247" stroke-miterlimit="10"/>
</g>
<g opacity="0.46">
<path opacity="0.46" d="M339.242 196.29H331.361V204.171H339.242V196.29Z" stroke="#B1B4CA" stroke-width="1.79247" stroke-miterlimit="10"/>
<path opacity="0.46" d="M324.338 196.29H316.457V204.171H324.338V196.29Z" stroke="#B1B4CA" stroke-width="1.79247" stroke-miterlimit="10"/>
<path opacity="0.46" d="M309.439 196.29H301.559V204.171H309.439V196.29Z" stroke="#B1B4CA" stroke-width="1.79247" stroke-miterlimit="10"/>
</g>
<g opacity="0.25">
<path opacity="0.25" d="M339.242 215.368H331.361V223.249H339.242V215.368Z" stroke="#B1B4CA" stroke-width="1.79247" stroke-miterlimit="10"/>
<path opacity="0.25" d="M324.338 215.368H316.457V223.249H324.338V215.368Z" stroke="#B1B4CA" stroke-width="1.79247" stroke-miterlimit="10"/>
<path opacity="0.25" d="M309.439 215.368H301.559V223.249H309.439V215.368Z" stroke="#B1B4CA" stroke-width="1.79247" stroke-miterlimit="10"/>
</g>
<g opacity="0.25">
<path opacity="0.25" d="M339.242 231.759H331.361V239.639H339.242V231.759Z" stroke="#B1B4CA" stroke-width="1.79247" stroke-miterlimit="10"/>
<path opacity="0.25" d="M324.338 231.759H316.457V239.639H324.338V231.759Z" stroke="#B1B4CA" stroke-width="1.79247" stroke-miterlimit="10"/>
<path opacity="0.25" d="M309.439 231.759H301.559V239.639H309.439V231.759Z" stroke="#B1B4CA" stroke-width="1.79247" stroke-miterlimit="10"/>
</g>
<path d="M360.995 287.549V121.408H437.106V309.331" stroke="#B1B4CA" stroke-width="1.79247" stroke-miterlimit="10"/>
<path d="M368.562 136.714V146.436H378.284V128.592H368.562V136.714ZM370.157 130.188H376.684V136.714H370.157V130.188ZM370.157 138.314H376.684V144.822H370.157V138.314Z" fill="#D9DBE5"/>
<path d="M385.707 136.714V146.436H395.425V128.592H385.707V136.714ZM387.303 130.188H393.829V136.714H387.303V130.188ZM387.303 138.314H393.829V144.822H387.303V138.314Z" fill="#D9DBE5"/>
<path d="M402.382 136.714V146.436H412.1V128.592H402.382V136.714ZM403.978 130.188H410.504V136.714H403.978V130.188ZM403.978 138.314H410.504V144.822H403.978V138.314Z" fill="#D9DBE5"/>
<path d="M418.075 128.592V146.436H427.793V128.592H418.075ZM426.197 144.822H419.671V138.314H426.197V144.822ZM426.197 136.7H419.671V130.174H426.197V136.7Z" fill="#D9DBE5"/>
<path d="M368.562 160.718V170.44H378.284V152.596H368.562V160.718ZM370.157 154.191H376.684V160.718H370.157V154.191ZM370.157 162.313H376.684V168.844H370.157V162.313Z" fill="#D9DBE5"/>
<path d="M385.707 160.718V170.44H395.425V152.596H385.707V160.718ZM387.303 154.191H393.829V160.718H387.303V154.191ZM387.303 162.313H393.829V168.844H387.303V162.313Z" fill="#D9DBE5"/>
<path d="M402.382 160.718V170.44H412.1V152.596H402.382V160.718ZM403.978 154.191H410.504V160.718H403.978V154.191ZM403.978 162.313H410.504V168.844H403.978V162.313Z" fill="#D9DBE5"/>
<path d="M418.075 160.718V170.44H427.793V152.596H418.075V160.718ZM419.671 154.191H426.197V160.718H419.671V154.191ZM419.671 162.313H426.197V168.844H419.671V162.313Z" fill="#D9DBE5"/>
<path d="M368.562 184.721V194.438H378.284V176.599H368.562V184.721ZM370.157 178.194H376.684V184.721H370.157V178.194ZM370.157 186.321H376.684V192.847H370.157V186.321Z" fill="#D9DBE5"/>
<path d="M385.707 184.721V194.438H395.425V176.599H385.707V184.721ZM387.303 178.194H393.829V184.721H387.303V178.194ZM387.303 186.321H393.829V192.847H387.303V186.321Z" fill="#D9DBE5"/>
<path d="M402.382 184.721V194.438H412.1V176.599H402.382V184.721ZM403.978 178.194H410.504V184.721H403.978V178.194ZM403.978 186.321H410.504V192.847H403.978V186.321Z" fill="#D9DBE5"/>
<path d="M418.075 184.721V194.438H427.793V176.599H418.075V184.721ZM419.671 178.194H426.197V184.721H419.671V178.194ZM419.671 186.321H426.197V192.847H419.671V186.321Z" fill="#D9DBE5"/>
<path d="M368.562 208.742V218.46H378.284V200.603H368.562V208.742ZM370.157 202.216H376.684V208.742H370.157V202.216ZM370.157 210.338H376.684V216.864H370.157V210.338Z" fill="#D9DBE5"/>
<path d="M385.707 208.742V218.46H395.425V200.603H385.707V208.742ZM387.303 202.216H393.829V208.742H387.303V202.216ZM387.303 210.338H393.829V216.864H387.303V210.338Z" fill="#D9DBE5"/>
<path d="M402.382 208.742V218.46H412.1V200.603H402.382V208.742ZM403.978 202.216H410.504V208.742H403.978V202.216ZM403.978 210.338H410.504V216.864H403.978V210.338Z" fill="#D9DBE5"/>
<path d="M418.075 208.742V218.46H427.793V200.603H418.075V208.742ZM419.671 202.216H426.197V208.742H419.671V202.216ZM419.671 210.338H426.197V216.864H419.671V210.338Z" fill="#D9DBE5"/>
<path d="M368.562 232.728V242.451H378.284V224.606H368.562V232.728ZM370.157 226.207H376.684V232.728H370.157V226.207ZM370.157 234.329H376.684V240.855H370.157V234.329Z" fill="#D9DBE5"/>
<path d="M385.707 232.728V242.451H395.425V224.606H385.707V232.728ZM387.303 226.207H393.829V232.728H387.303V226.207ZM387.303 234.329H393.829V240.855H387.303V234.329Z" fill="#D9DBE5"/>
<path d="M402.382 232.728V242.451H412.1V224.606H402.382V232.728ZM403.978 226.207H410.504V232.728H403.978V226.207ZM403.978 234.329H410.504V240.855H403.978V234.329Z" fill="#D9DBE5"/>
<path d="M418.075 232.728V242.451H427.793V224.606H418.075V232.728ZM419.671 226.207H426.197V232.728H419.671V226.207ZM419.671 234.329H426.197V240.855H419.671V234.329Z" fill="#D9DBE5"/>
<path d="M186.787 309.38V234.155C186.786 223.668 183.121 213.51 176.425 205.439C175.244 204.016 173.765 202.87 172.091 202.084C170.417 201.298 168.59 200.891 166.741 200.891C164.892 200.891 163.065 201.298 161.391 202.084C159.717 202.87 158.237 204.016 157.057 205.439C150.361 213.51 146.696 223.668 146.695 234.155V309.519" stroke="#B1B4CA" stroke-width="1.79247" stroke-miterlimit="10"/>
<g opacity="0.81">
<path opacity="0.81" d="M154.112 227.348H159.499V221.962H154.112V227.348Z" stroke="#B1B4CA" stroke-width="1.79247" stroke-miterlimit="10"/>
<path opacity="0.81" d="M164.292 227.348H169.678V221.962H164.292V227.348Z" stroke="#B1B4CA" stroke-width="1.79247" stroke-miterlimit="10"/>
<path opacity="0.81" d="M174.474 227.348H179.86V221.962H174.474V227.348Z" stroke="#B1B4CA" stroke-width="1.79247" stroke-miterlimit="10"/>
</g>
<g opacity="0.46">
<path opacity="0.46" d="M154.112 239.858H159.499V234.472H154.112V239.858Z" stroke="#B1B4CA" stroke-width="1.79247" stroke-miterlimit="10"/>
<path opacity="0.46" d="M164.292 239.858H169.678V234.472H164.292V239.858Z" stroke="#B1B4CA" stroke-width="1.79247" stroke-miterlimit="10"/>
<path opacity="0.46" d="M174.474 239.858H179.86V234.472H174.474V239.858Z" stroke="#B1B4CA" stroke-width="1.79247" stroke-miterlimit="10"/>
</g>
<g opacity="0.25">
<path opacity="0.25" d="M154.112 252.899H159.499V247.513H154.112V252.899Z" stroke="#B1B4CA" stroke-width="1.79247" stroke-miterlimit="10"/>
<path opacity="0.25" d="M164.292 252.899H169.678V247.513H164.292V252.899Z" stroke="#B1B4CA" stroke-width="1.79247" stroke-miterlimit="10"/>
<path opacity="0.25" d="M174.474 252.899H179.86V247.513H174.474V252.899Z" stroke="#B1B4CA" stroke-width="1.79247" stroke-miterlimit="10"/>
</g>
<g opacity="0.25">
<path opacity="0.25" d="M154.112 264.1H159.499V258.714H154.112V264.1Z" stroke="#B1B4CA" stroke-width="1.79247" stroke-miterlimit="10"/>
<path opacity="0.25" d="M164.292 264.1H169.678V258.714H164.292V264.1Z" stroke="#B1B4CA" stroke-width="1.79247" stroke-miterlimit="10"/>
<path opacity="0.25" d="M174.474 264.1H179.86V258.714H174.474V264.1Z" stroke="#B1B4CA" stroke-width="1.79247" stroke-miterlimit="10"/>
</g>
<path d="M87.2217 309.724V183.295H139.244V309.546" stroke="#B1B4CA" stroke-width="1.79247" stroke-miterlimit="10"/>
<path d="M134.071 193.755V200.397H127.429V188.203H134.071V193.755ZM132.976 189.285H128.519V193.755H132.989L132.976 189.285ZM132.976 194.837H128.519V199.307H132.989L132.976 194.837Z" fill="#D9DBE5"/>
<path d="M122.352 193.755V200.397H115.71V188.203H122.352V193.755ZM121.262 189.285H116.792V193.755H121.262V189.285ZM121.262 194.837H116.792V199.307H121.262V194.837Z" fill="#D9DBE5"/>
<path d="M110.959 193.755V200.397H104.316V188.203H110.959V193.755ZM109.868 189.285H105.398V193.755H109.868V189.285ZM109.868 194.837H105.398V199.307H109.868V194.837Z" fill="#D9DBE5"/>
<path d="M100.232 188.203V200.397H93.5898V188.203H100.232ZM94.6805 199.307H99.1505V194.837H94.6805V199.307ZM94.6805 193.755H99.1505V189.285H94.6805V193.755Z" fill="#D9DBE5"/>
<path d="M134.071 210.162V216.791H127.429V204.614H134.071V210.162ZM132.976 205.692H128.519V210.162H132.989L132.976 205.692ZM132.976 211.243H128.519V215.713H132.989L132.976 211.243Z" fill="#D9DBE5"/>
<path d="M122.352 210.162V216.791H115.71V204.614H122.352V210.162ZM121.262 205.692H116.792V210.162H121.262V205.692ZM121.262 211.243H116.792V215.713H121.262V211.243Z" fill="#D9DBE5"/>
<path d="M110.959 210.162V216.791H104.316V204.614H110.959V210.162ZM109.868 205.692H105.398V210.162H109.868V205.692ZM109.868 211.243H105.398V215.713H109.868V211.243Z" fill="#D9DBE5"/>
<path d="M100.232 210.162V216.791H93.5898V204.614H100.232V210.162ZM99.1416 205.692H94.6716V210.162H99.1416V205.692ZM99.1416 211.243H94.6716V215.713H99.1416V211.243Z" fill="#D9DBE5"/>
<path d="M134.071 226.569V233.212H127.429V221.018H134.071V226.569ZM132.976 222.099H128.519V226.569H132.989L132.976 222.099ZM132.976 227.651H128.519V232.121H132.989L132.976 227.651Z" fill="#D9DBE5"/>
<path d="M122.352 226.569V233.212H115.71V221.018H122.352V226.569ZM121.262 222.099H116.792V226.569H121.262V222.099ZM121.262 227.651H116.792V232.121H121.262V227.651Z" fill="#D9DBE5"/>
<path d="M110.959 226.569V233.212H104.316V221.018H110.959V226.569ZM109.868 222.099H105.398V226.569H109.868V222.099ZM109.868 227.651H105.398V232.121H109.868V227.651Z" fill="#D9DBE5"/>
<path d="M100.232 226.569V233.212H93.5898V221.018H100.232V226.569ZM99.1416 222.099H94.6716V226.569H99.1416V222.099ZM99.1416 227.651H94.6716V232.121H99.1416V227.651Z" fill="#D9DBE5"/>
<path d="M134.071 242.974V249.616H127.429V237.422H134.071V242.974ZM132.976 238.504H128.519V242.974H132.989L132.976 238.504ZM132.989 244.055H128.519V248.525H132.989V244.055Z" fill="#D9DBE5"/>
<path d="M122.352 242.974V249.616H115.71V237.422H122.352V242.974ZM121.262 238.504H116.792V242.974H121.262V238.504ZM121.262 244.055H116.792V248.525H121.262V244.055Z" fill="#D9DBE5"/>
<path d="M110.959 242.974V249.616H104.316V237.422H110.959V242.974ZM109.868 238.504H105.398V242.974H109.868V238.504ZM109.868 244.055H105.398V248.525H109.868V244.055Z" fill="#D9DBE5"/>
<path d="M100.232 242.974V249.616H93.5898V237.422H100.232V242.974ZM99.1416 238.504H94.6716V242.974H99.1416V238.504ZM99.1416 244.055H94.6716V248.525H99.1416V244.055Z" fill="#D9DBE5"/>
<path d="M134.071 259.379V266.021H127.429V253.827H134.071V259.379ZM132.976 254.909H128.519V259.379H132.989L132.976 254.909ZM132.976 260.461H128.519V264.931H132.989L132.976 260.461Z" fill="#D9DBE5"/>
<path d="M122.352 259.379V266.021H115.71V253.827H122.352V259.379ZM121.262 254.909H116.792V259.379H121.262V254.909ZM121.262 260.461H116.792V264.931H121.262V260.461Z" fill="#D9DBE5"/>
<path d="M110.959 259.379V266.021H104.316V253.827H110.959V259.379ZM109.868 254.909H105.398V259.379H109.868V254.909ZM109.868 260.461H105.398V264.931H109.868V260.461Z" fill="#D9DBE5"/>
<path d="M100.232 259.379V266.021H93.5898V253.827H100.232V259.379ZM99.1416 254.909H94.6716V259.379H99.1416V254.909ZM99.1416 260.461H94.6716V264.931H99.1416V260.461Z" fill="#D9DBE5"/>
<path d="M222.417 171.665C222.417 171.665 221.152 188.875 202.088 187.283C202.088 187.283 208.766 204.408 213.558 207.438L237.633 222.677L243.4 195.718L222.417 171.665Z" fill="#B1B4CA"/>
<path d="M202.009 236.457L151.56 309.51L95.9268 309.702V308.683C95.9281 306.304 96.8324 304.014 98.4572 302.277C100.082 300.539 102.306 299.484 104.679 299.323L120.029 298.299L164.792 217.49C166.905 213.555 169.813 210.102 173.33 207.348C176.847 204.594 180.897 202.599 185.224 201.491C189.552 200.383 194.062 200.184 198.47 200.909C202.878 201.633 207.088 203.264 210.833 205.699L211.217 205.949L236.982 222.238L218.7 266.294L195.487 245.929" fill="white"/>
<path d="M372.622 279.007C367.978 291.935 359.48 294.031 349.544 293.365C344.345 286.553 338.185 277.273 333.206 270.34C327.419 262.249 321.623 254.17 315.818 246.104C314.338 244.03 312.858 241.969 311.348 239.895V270.975C311.353 272.579 311.247 274.182 311.03 275.771C282.717 299.967 242.277 269.607 236.761 265.222C236.345 264.905 236.14 264.726 236.14 264.726C233.498 245.581 236.35 231.102 236.958 220.155C237.789 205.53 240.498 200.881 242.903 196.384L243.9 193.863C245.768 190.381 245.688 189.514 245.938 189.348L245.862 188.709C245.862 188.709 246.832 187.618 246.832 187.591C252.294 178.575 256.501 171.052 265.543 165.63C262.414 167.937 260.251 173.524 263.568 176.577C267.425 180.131 272.678 175.929 275.842 173.448C279.887 170.395 283.436 166.735 286.365 162.6C287.29 161.259 288.452 159.833 288.273 158.13C294.826 158.036 300.369 160.365 307.128 164.271C315.674 169.22 322.487 176.685 327.136 185.41L372.622 279.007Z" fill="#B1B4CA"/>
<path d="M290.96 140.468V140.593C290.96 143.202 289.924 145.703 288.08 147.547C286.235 149.391 283.735 150.427 281.126 150.427C279.455 150.435 277.81 150.005 276.357 149.18C275.938 148.963 275.541 148.709 275.168 148.42C275.015 148.296 274.895 148.136 274.817 147.955C274.74 147.773 274.707 147.576 274.722 147.379C274.736 147.183 274.799 146.993 274.903 146.825C275.007 146.658 275.15 146.518 275.32 146.418C277.336 145.202 279.231 143.432 279.91 141.233C280.118 140.558 280.188 139.848 280.116 139.145C280.057 138.248 279.762 137.382 279.263 136.634C278.763 135.886 278.075 135.283 277.269 134.885C277.015 134.789 276.751 134.724 276.482 134.693C275.722 134.568 274.694 134.581 274.461 135.14C275.66 132.476 275.948 129.491 275.279 126.647C274.863 124.882 274.05 123.236 272.901 121.833C272.918 122.339 272.823 122.842 272.623 123.307C272.422 123.771 272.122 124.186 271.742 124.521C271.363 124.857 270.915 125.104 270.429 125.246C269.943 125.387 269.432 125.42 268.932 125.342C265.048 124.895 264.619 121.113 264.619 121.113C264.619 121.113 264.592 121.153 264.592 121.18C262.544 125.275 257.583 124.984 254.194 122.812C252.994 122.066 251.967 121.072 251.182 119.897C250.529 115.472 254.458 111.574 258.633 111.31C258.951 108.561 261.203 105.768 263.939 105.768C264.89 105.765 265.824 106.017 266.644 106.498C267.464 106.979 268.14 107.672 268.601 108.503C268.673 108.633 268.738 108.768 268.794 108.906C270.036 107.386 272.003 105.777 273.952 105.777C275.317 105.778 276.649 106.206 277.76 106.999C278.872 107.792 279.71 108.911 280.156 110.202C280.156 110.005 281.944 109.37 282.119 109.308C282.845 109.097 283.598 108.994 284.354 109.004C285.671 109.038 286.959 109.403 288.099 110.065C289.24 110.726 290.195 111.663 290.88 112.79C290.949 113.182 290.981 113.58 290.978 113.979C290.979 115.17 290.699 116.345 290.16 117.407C290.773 117.635 291.338 117.978 291.823 118.418C292.865 119.329 293.508 120.613 293.611 121.994C293.611 122.132 293.611 122.271 293.611 122.409C293.613 123.453 293.302 124.473 292.717 125.337C293.36 125.58 293.969 125.907 294.527 126.307C296.192 127.507 297.317 129.316 297.656 131.34C297.731 131.783 297.769 132.232 297.768 132.681C297.768 134.583 297.078 136.421 295.826 137.853C294.574 139.285 292.845 140.214 290.96 140.468Z" fill="#B1B4CA"/>
<path d="M290.96 140.468V140.593C290.96 143.202 289.924 145.703 288.08 147.547C286.235 149.391 283.735 150.427 281.126 150.427C279.455 150.435 277.81 150.005 276.357 149.18C278.373 147.964 280.268 146.194 280.947 144C281.19 143.181 281.241 142.317 281.097 141.475C280.953 140.634 280.617 139.837 280.116 139.145C280.057 138.248 279.762 137.382 279.263 136.634C278.763 135.886 278.075 135.283 277.269 134.885C277.015 134.789 276.751 134.724 276.482 134.693C276.967 131.952 276.545 129.127 275.279 126.647C274.863 124.882 274.05 123.236 272.901 121.833C272.918 122.339 272.823 122.842 272.623 123.307C272.422 123.771 272.122 124.186 271.742 124.521C271.363 124.857 270.915 125.104 270.429 125.246C269.943 125.387 269.432 125.42 268.932 125.342C265.048 124.895 264.619 121.113 264.619 121.113C264.619 121.113 264.592 121.153 264.592 121.18C262.544 125.275 257.583 124.984 254.194 122.812C252.994 122.066 251.967 121.072 251.182 119.897C250.529 115.472 254.458 111.574 258.633 111.31C258.951 108.561 261.203 105.768 263.939 105.768C264.89 105.765 265.824 106.017 266.644 106.498C267.464 106.979 268.14 107.672 268.601 108.503C268.673 108.633 268.738 108.768 268.794 108.906C270.036 107.386 272.003 105.777 273.952 105.777C275.317 105.778 276.649 106.206 277.76 106.999C278.872 107.792 279.71 108.911 280.156 110.202C280.156 110.005 281.944 109.37 282.119 109.308C282.845 109.097 283.598 108.994 284.354 109.004C285.671 109.038 286.959 109.403 288.099 110.065C289.24 110.726 290.195 111.663 290.88 112.79C290.949 113.182 290.981 113.58 290.978 113.979C290.979 115.17 290.699 116.345 290.16 117.407C290.773 117.635 291.338 117.978 291.823 118.418C291.691 119.028 291.481 119.618 291.197 120.174C292.158 120.539 292.998 121.166 293.62 121.985C293.62 122.123 293.62 122.262 293.62 122.4C293.622 123.444 293.311 124.464 292.726 125.328C293.369 125.571 293.978 125.898 294.536 126.298C294.386 126.935 294.124 127.541 293.763 128.086C295.399 128.692 296.782 129.832 297.688 131.323C297.763 131.766 297.8 132.214 297.799 132.664C297.802 134.573 297.11 136.419 295.851 137.855C294.593 139.292 292.854 140.221 290.96 140.468Z" fill="#B1B4CA"/>
<path d="M265.57 401.016H202.007V399.787C202.005 397.356 202.946 395.02 204.632 393.269C206.317 391.518 208.617 390.49 211.045 390.4L226.046 389.778H261.467L265.57 401.016Z" fill="#303030"/>
<path d="M151.56 309.51L95.9268 309.371V308.142C95.925 305.711 96.8668 303.374 98.5533 301.623C100.24 299.872 102.54 298.844 104.97 298.755L119.971 298.143L158.99 298.764L151.56 309.51Z" fill="#303030"/>
<path d="M243.632 309.193H273.134C282.428 309.167 291.396 305.766 298.37 299.622C305.343 293.478 309.848 285.01 311.044 275.793C311.26 274.202 311.367 272.598 311.361 270.992V239.903" stroke="#303030" stroke-width="1.79247" stroke-miterlimit="10"/>
<path d="M254.349 264.618L237.055 265.213H236.764L225.844 265.432C223.438 265.48 221.043 265.763 218.692 266.277C199.198 270.492 186.74 290.026 190.902 309.354C191.515 312.234 192.476 315.029 193.763 317.677L226.05 389.778L211.048 390.386C208.62 390.476 206.321 391.505 204.635 393.256C202.949 395.006 202.008 397.343 202.01 399.773V401.002H265.573L261.47 389.778L231.932 309.081" stroke="#303030" stroke-width="1.79247" stroke-miterlimit="10"/>
<path d="M202.006 236.474L151.558 309.509" stroke="#303030" stroke-width="1.79247" stroke-miterlimit="10"/>
<path d="M218.682 266.294L195.47 245.929" stroke="#303030" stroke-width="1.79247" stroke-miterlimit="10"/>
<path d="M267.553 309.166L267.401 309.027" stroke="#303030" stroke-width="1.79247" stroke-miterlimit="10"/>
<path d="M211.198 205.949L196.13 175.079" stroke="#303030" stroke-width="1.79247" stroke-miterlimit="10"/>
<path d="M394.353 309.081C394.353 309.108 394.38 309.121 394.393 309.153H381.636" stroke="#303030" stroke-width="1.79247" stroke-miterlimit="10"/>
<path d="M247.061 309.22C247.061 309.153 247.021 309.081 247.008 309.027" stroke="#303030" stroke-width="1.79247" stroke-miterlimit="10"/>
<path d="M288.279 158.536C293.016 158.41 297.718 159.377 302.02 161.361C312.053 166.033 320.404 173.68 325.939 183.264C332.036 193.899 336.971 205.373 342.389 216.342C349.177 230.128 355.974 243.907 362.781 257.681C366.059 264.329 369.337 270.979 372.615 277.631L379.57 291.716C381 294.069 383.014 296.012 385.417 297.357C387.818 298.696 390.521 299.4 393.271 299.404C396.025 299.404 398.722 300.191 401.044 301.672C403.367 303.154 405.217 305.269 406.377 307.767L406.985 309.082H390.209" stroke="#303030" stroke-width="1.79247" stroke-miterlimit="10"/>
<path d="M237.058 265.223C235.087 252.581 235.503 239.855 236.499 227.143C238.287 204.422 245.198 181.656 263.726 166.959C264.204 166.579 264.687 166.203 265.188 165.854" stroke="#B1B4CA" stroke-width="1.79247" stroke-miterlimit="10"/>
<path d="M282.911 188.708C282.562 202.091 293.983 215.653 293.983 215.653C293.983 215.653 294.01 215.68 294.01 215.693C299.803 223.739 305.587 231.809 311.363 239.903C312.856 241.977 314.335 244.038 315.833 246.107C321.641 254.183 327.437 262.262 333.221 270.344C338.165 277.299 342.827 284.598 348.026 291.438C349.367 293.19 350.734 294.906 352.174 296.578C354.011 298.724 355.906 301.169 358.146 302.899C360.385 304.629 362.982 306.242 365.298 308.066C367.238 309.694 368.899 311.628 370.215 313.792C371.654 316.251 371.806 319.031 373.035 321.489C375.19 325.834 380.514 325.115 382.337 320.966C384.867 315.213 379.338 302.773 379.338 302.773" stroke="#303030" stroke-width="1.79247" stroke-miterlimit="10"/>
<path d="M452.15 309.151H381.636" stroke="#303030" stroke-width="1.79247" stroke-miterlimit="10"/>
<path d="M236.964 222.238L211.217 205.949L210.833 205.699C207.088 203.264 202.878 201.633 198.47 200.909C194.062 200.184 189.552 200.383 185.225 201.491C180.897 202.599 176.847 204.594 173.33 207.348C169.813 210.102 166.906 213.555 164.792 217.49L120.029 298.299L104.67 299.323C102.297 299.484 100.073 300.539 98.4484 302.277C96.8236 304.014 95.9193 306.304 95.918 308.683V309.702" stroke="#303030" stroke-width="1.79247" stroke-miterlimit="10"/>
<path d="M189.728 150.83C191.855 151.246 192.66 151.107 194.198 151.411C194.315 151.43 194.436 151.409 194.541 151.353C194.645 151.297 194.729 151.209 194.78 151.101C194.831 150.993 194.844 150.872 194.82 150.755C194.796 150.638 194.734 150.533 194.645 150.455L189.558 145.538C188.164 144.351 187.203 142.737 186.822 140.947L186.777 140.768C186.953 140.16 187.287 139.61 187.747 139.175C188.207 138.741 188.775 138.437 189.392 138.296C190.474 138.121 191.583 138.264 192.584 138.708C194.242 139.36 196.468 139.941 198.587 140.67C201.518 141.703 203.98 143.754 205.525 146.45L205.721 146.798C211.811 157.381 218.779 167.434 226.551 176.85L243.09 197.175" stroke="#303030" stroke-width="1.79247" stroke-miterlimit="10"/>
<path d="M192.37 177.163C191.422 177.163 190.499 176.859 189.736 176.296C188.973 175.733 188.411 174.94 188.132 174.034L183.877 160.915L180.122 148.519L175.227 132.561C175.038 131.942 174.998 131.287 175.113 130.65C175.228 130.013 175.493 129.413 175.886 128.899C176.28 128.385 176.79 127.973 177.376 127.696C177.961 127.419 178.603 127.287 179.25 127.309C180.087 127.333 180.895 127.616 181.565 128.118C182.235 128.619 182.733 129.316 182.992 130.112L189.737 150.83L196.598 171.352C196.815 172.018 196.871 172.727 196.761 173.42C196.651 174.112 196.379 174.769 195.966 175.336C195.554 175.903 195.013 176.364 194.388 176.682C193.763 176.999 193.071 177.164 192.37 177.163Z" fill="#303030"/>
<path d="M192.37 177.163C191.422 177.163 190.499 176.859 189.736 176.296C188.973 175.733 188.411 174.94 188.132 174.034L183.877 160.915L180.122 148.519L175.227 132.561C175.038 131.942 174.998 131.287 175.113 130.65C175.228 130.013 175.493 129.413 175.886 128.899C176.28 128.385 176.79 127.973 177.376 127.696C177.961 127.419 178.603 127.287 179.25 127.309C180.087 127.333 180.895 127.616 181.565 128.118C182.235 128.619 182.733 129.316 182.992 130.112L189.737 150.83L196.598 171.352C196.815 172.018 196.871 172.727 196.761 173.42C196.651 174.112 196.379 174.769 195.966 175.336C195.554 175.903 195.013 176.364 194.388 176.682C193.763 176.999 193.071 177.164 192.37 177.163Z" stroke="#303030" stroke-width="1.79247" stroke-miterlimit="10"/>
<path d="M174.98 157.079C173.916 157.036 172.886 156.695 172.007 156.095C171.527 155.739 171.123 155.289 170.82 154.775C170.517 154.259 170.32 153.688 170.241 153.096C170.162 152.503 170.203 151.9 170.362 151.324C170.52 150.747 170.792 150.208 171.162 149.739C171.828 148.918 172.725 148.317 173.737 148.014C175.032 147.589 176.432 147.607 177.715 148.067C179.081 148.659 180.2 149.706 180.88 151.031" stroke="#303030" stroke-width="1.79247" stroke-miterlimit="10"/>
<path d="M177.622 165.607C176.554 165.597 175.51 165.288 174.609 164.713C174.121 164.369 173.706 163.929 173.39 163.422C173.074 162.914 172.863 162.348 172.77 161.758C172.676 161.167 172.702 160.564 172.847 159.984C172.991 159.403 173.249 158.858 173.608 158.379C174.255 157.541 175.14 156.918 176.147 156.591C177.428 156.134 178.825 156.118 180.116 156.546C181.399 156.993 182.664 157.789 183.285 158.973" stroke="#303030" stroke-width="1.79247" stroke-miterlimit="10"/>
<path d="M185.737 166.68C184.97 165.662 183.879 164.936 182.645 164.619C181.411 164.302 180.105 164.414 178.943 164.937C178.057 165.317 177.305 165.954 176.784 166.765C176.497 167.226 176.305 167.74 176.219 168.276C176.134 168.813 176.157 169.361 176.287 169.888C176.417 170.416 176.651 170.912 176.976 171.347C177.301 171.783 177.71 172.149 178.178 172.424L178.786 172.75C178.786 172.75 182.434 174.216 188.518 174.918" stroke="#303030" stroke-width="1.79247" stroke-miterlimit="10"/>
<path d="M226.343 309.233C228.028 309.233 245.363 309.233 247.061 309.233C253.865 309.206 260.708 309.193 267.552 309.179C301.434 309.094 335.442 309.041 366.339 309.027" stroke="#303030" stroke-width="1.79247" stroke-miterlimit="10"/>
<path d="M381.589 309.014C391.906 309.014 397.641 309.014 406.961 309.014C422.159 309.04 435.855 309.081 447.468 309.139" stroke="#303030" stroke-width="1.79247" stroke-miterlimit="10"/>
<path d="M49.8496 309.886C50.6631 309.886 113.154 309.609 190.892 309.372" stroke="#303030" stroke-width="1.79247" stroke-miterlimit="10"/>
<path d="M288.28 158.135C288.459 159.851 287.296 161.291 286.371 162.605C283.443 166.741 279.894 170.4 275.849 173.453C272.684 175.916 267.432 180.118 263.574 176.582C260.257 173.529 262.398 167.942 265.55 165.635L265.59 165.609" stroke="#303030" stroke-width="1.79247" stroke-miterlimit="10"/>
<path d="M257.307 128.774C257.307 128.774 262.912 129.315 263.806 134.138" stroke="#303030" stroke-width="1.79247" stroke-miterlimit="10"/>
<path d="M254.697 142.836C253.394 143.045 252.063 143.001 250.776 142.706C250.534 142.647 250.31 142.529 250.123 142.363C249.936 142.198 249.792 141.989 249.704 141.755C249.616 141.521 249.586 141.27 249.617 141.022C249.649 140.774 249.739 140.537 249.882 140.333C251.223 138.451 252.564 136.591 254.044 134.821C254.272 134.598 254.428 134.312 254.491 133.999C254.491 133.999 254.433 128.103 255.984 123.718" stroke="#303030" stroke-width="1.79247" stroke-miterlimit="10"/>
<path d="M259.871 134.005C260.068 133.07 259.583 132.176 258.788 132.01C257.993 131.842 257.19 132.465 256.993 133.4C256.796 134.335 257.281 135.228 258.076 135.395C258.871 135.562 259.675 134.94 259.871 134.005Z" fill="#303030"/>
<path d="M288.28 158.536C286.219 152.56 285.271 149.507 285.271 149.507" stroke="#303030" stroke-width="1.79247" stroke-linecap="round" stroke-linejoin="round"/>
<path d="M265.592 156.538L265.561 177.163" stroke="#303030" stroke-width="1.79247" stroke-miterlimit="10"/>
<path d="M252.641 142.967C252.641 142.967 254.08 154.83 259.837 157.079C265.595 159.327 271.312 152.39 271.312 152.39" stroke="#303030" stroke-width="1.79247" stroke-linecap="round" stroke-linejoin="round"/>
<path d="M253.82 148.363C254.566 148.885 255.431 149.213 256.336 149.317C257.24 149.42 258.156 149.297 259.001 148.958" stroke="#303030" stroke-width="1.79247" stroke-linecap="round" stroke-linejoin="round"/>
<path d="M268.261 108.338C268.263 107.427 268.026 106.532 267.573 105.741C266.986 104.725 266.082 103.929 265 103.476C263.917 103.023 262.716 102.937 261.58 103.231C260.444 103.526 259.437 104.185 258.711 105.107C257.986 106.03 257.583 107.165 257.564 108.338" stroke="#303030" stroke-width="1.79247" stroke-miterlimit="10" stroke-linecap="round"/>
<path d="M265.302 116.214C265.297 114.923 264.976 113.654 264.369 112.516C263.761 111.378 262.885 110.406 261.816 109.683C256.452 106.072 248.723 111.588 250.256 117.805C250.793 119.973 252.353 121.641 254.19 122.816C257.574 124.989 262.54 125.288 264.578 121.189L264.609 121.122C264.609 121.122 265.056 124.895 268.923 125.351C269.423 125.428 269.934 125.394 270.419 125.251C270.904 125.109 271.352 124.861 271.731 124.526C272.11 124.192 272.411 123.778 272.613 123.314C272.814 122.85 272.911 122.347 272.897 121.842C275.968 125.565 276.423 130.782 274.466 135.14C274.819 134.353 276.75 134.662 277.273 134.894C279.606 135.927 280.652 138.863 279.919 141.233C279.235 143.441 277.34 145.197 275.333 146.427C275.163 146.526 275.019 146.665 274.915 146.832C274.81 146.999 274.748 147.188 274.732 147.385C274.717 147.581 274.749 147.778 274.827 147.959C274.904 148.14 275.024 148.3 275.176 148.425C276.634 149.532 278.372 150.211 280.195 150.384C282.018 150.558 283.853 150.219 285.493 149.406C287.133 148.593 288.514 147.338 289.48 145.783C290.446 144.227 290.959 142.433 290.96 140.602V140.477C292.7 140.259 294.316 139.465 295.552 138.221C296.787 136.977 297.57 135.355 297.776 133.614C297.982 131.873 297.599 130.113 296.687 128.615C295.776 127.117 294.389 125.968 292.748 125.351C293.333 124.486 293.644 123.466 293.642 122.423C293.642 121 293.077 119.636 292.071 118.63C291.065 117.624 289.701 117.059 288.278 117.059" stroke="#303030" stroke-width="1.79247" stroke-linecap="round" stroke-linejoin="round"/>
<path d="M268.26 105.58C269.462 103.922 270.723 103.001 272.922 103.001C274.29 103.002 275.623 103.431 276.735 104.226C277.848 105.022 278.684 106.146 279.126 107.44C279.068 107.261 280.914 106.599 281.098 106.546C281.824 106.336 282.577 106.234 283.333 106.242C285.359 106.298 287.287 107.133 288.713 108.575C290.139 110.016 290.955 111.952 290.99 113.979C290.989 115.171 290.709 116.345 290.172 117.408" stroke="#303030" stroke-width="1.79247" stroke-linecap="square" stroke-linejoin="round"/>
<path d="M290.96 140.468V140.593C290.96 143.202 289.924 145.703 288.08 147.547C286.235 149.391 283.735 150.427 281.126 150.427C279.455 150.435 277.81 150.005 276.357 149.18C275.938 148.963 275.541 148.709 275.168 148.42C275.015 148.296 274.895 148.136 274.817 147.955C274.74 147.773 274.707 147.576 274.722 147.379C274.736 147.183 274.799 146.993 274.903 146.825C275.007 146.658 275.15 146.518 275.32 146.418C277.336 145.202 279.231 143.432 279.91 141.233C280.118 140.558 280.188 139.848 280.116 139.145C280.057 138.248 279.762 137.382 279.263 136.634C278.763 135.886 278.075 135.283 277.269 134.885C277.015 134.789 276.751 134.724 276.482 134.693C275.722 134.568 274.694 134.581 274.461 135.14C275.66 132.476 275.948 129.491 275.279 126.647C274.863 124.882 274.05 123.236 272.901 121.833C272.918 122.339 272.823 122.842 272.623 123.307C272.422 123.771 272.122 124.186 271.742 124.521C271.363 124.857 270.915 125.104 270.429 125.246C269.943 125.387 269.432 125.42 268.932 125.342C265.048 124.895 264.619 121.113 264.619 121.113C264.619 121.113 264.592 121.153 264.592 121.18C262.544 125.275 257.583 124.984 254.194 122.812C252.994 122.066 251.967 121.072 251.182 119.897C250.529 115.472 254.458 111.574 258.633 111.31C258.951 108.561 261.203 105.768 263.939 105.768C264.89 105.765 265.824 106.017 266.644 106.498C267.464 106.979 268.14 107.672 268.601 108.503C268.673 108.633 268.738 108.768 268.794 108.906C270.036 107.386 272.003 105.777 273.952 105.777C275.317 105.778 276.649 106.206 277.76 106.999C278.872 107.792 279.71 108.911 280.156 110.202C280.156 110.005 281.944 109.37 282.119 109.308C282.845 109.097 283.598 108.994 284.354 109.004C285.671 109.038 286.959 109.403 288.099 110.065C289.24 110.726 290.195 111.663 290.88 112.79C290.949 113.182 290.981 113.58 290.978 113.979C290.979 115.17 290.699 116.345 290.16 117.407C290.773 117.635 291.338 117.978 291.823 118.418C292.865 119.329 293.508 120.613 293.611 121.994C293.611 122.132 293.611 122.271 293.611 122.409C293.613 123.453 293.302 124.473 292.717 125.337C293.36 125.58 293.969 125.907 294.527 126.307C296.192 127.507 297.317 129.316 297.656 131.34C297.731 131.783 297.769 132.232 297.768 132.681C297.768 134.583 297.078 136.421 295.826 137.853C294.574 139.285 292.845 140.214 290.96 140.468Z" fill="#303030"/>
<path d="M290.961 140.467V140.592C290.961 143.201 289.925 145.702 288.081 147.546C286.236 149.39 283.735 150.426 281.127 150.426C279.456 150.434 277.811 150.004 276.358 149.179C278.374 147.963 280.269 146.193 280.948 143.999C281.191 143.18 281.242 142.316 281.098 141.474C280.954 140.633 280.618 139.836 280.117 139.144C280.058 138.247 279.763 137.381 279.264 136.633C278.764 135.885 278.076 135.282 277.27 134.884C277.016 134.788 276.752 134.723 276.483 134.692C276.968 131.951 276.546 129.126 275.28 126.646C274.864 124.881 274.051 123.235 272.902 121.832C272.919 122.338 272.824 122.841 272.623 123.306C272.423 123.77 272.123 124.185 271.743 124.521C271.364 124.856 270.916 125.103 270.43 125.245C269.944 125.386 269.433 125.419 268.933 125.341C265.049 124.894 264.62 121.112 264.62 121.112C264.62 121.112 264.593 121.152 264.593 121.179C262.545 125.274 257.584 124.983 254.195 122.811C252.995 122.065 251.968 121.071 251.183 119.896C250.53 115.471 254.459 111.573 258.634 111.309C258.952 108.56 261.204 105.767 263.94 105.767C264.891 105.764 265.825 106.017 266.645 106.497C267.465 106.978 268.141 107.671 268.602 108.502C268.674 108.632 268.739 108.767 268.794 108.905C270.037 107.385 272.004 105.776 273.953 105.776C275.318 105.777 276.65 106.205 277.761 106.998C278.873 107.791 279.711 108.91 280.157 110.201C280.157 110.004 281.945 109.369 282.12 109.307C282.845 109.096 283.599 108.994 284.355 109.003C285.672 109.037 286.96 109.402 288.1 110.064C289.241 110.725 290.196 111.662 290.881 112.789C290.95 113.181 290.982 113.579 290.979 113.978C290.98 115.169 290.7 116.344 290.161 117.407C290.774 117.634 291.339 117.977 291.824 118.417C291.692 119.027 291.482 119.617 291.198 120.173C292.159 120.538 292.999 121.165 293.621 121.984C293.621 122.122 293.621 122.261 293.621 122.399C293.623 123.443 293.312 124.463 292.727 125.327C293.37 125.571 293.978 125.897 294.537 126.297C294.387 126.934 294.125 127.54 293.764 128.085C295.399 128.691 296.783 129.831 297.689 131.322C297.764 131.765 297.801 132.213 297.8 132.663C297.803 134.572 297.111 136.418 295.852 137.855C294.594 139.291 292.855 140.22 290.961 140.467Z" fill="#303030"/>
<path d="M257.307 128.774C257.307 128.774 262.912 129.315 263.806 134.138" stroke="#303030" stroke-width="1.79247" stroke-miterlimit="10"/>
<path d="M254.697 142.836C253.394 143.045 252.063 143.001 250.776 142.706C250.534 142.647 250.31 142.529 250.123 142.363C249.936 142.198 249.792 141.989 249.704 141.755C249.616 141.521 249.586 141.27 249.617 141.022C249.649 140.774 249.739 140.537 249.882 140.333C251.223 138.451 252.564 136.591 254.044 134.821C254.272 134.598 254.428 134.312 254.491 133.999C254.491 133.999 254.433 128.103 255.984 123.718" stroke="#303030" stroke-width="1.79247" stroke-miterlimit="10"/>
<path d="M259.871 134.005C260.068 133.07 259.583 132.176 258.788 132.01C257.993 131.842 257.19 132.465 256.993 133.4C256.796 134.335 257.281 135.228 258.076 135.395C258.871 135.562 259.675 134.94 259.871 134.005Z" fill="#303030"/>
<path d="M288.28 158.536C286.219 152.56 285.271 149.507 285.271 149.507" stroke="#303030" stroke-width="1.79247" stroke-linecap="round" stroke-linejoin="round"/>
<path d="M265.592 156.538L265.561 177.163" stroke="#303030" stroke-width="1.79247" stroke-miterlimit="10"/>
<path d="M252.641 142.967C252.641 142.967 254.08 154.83 259.837 157.079C265.595 159.327 271.312 152.39 271.312 152.39" stroke="#303030" stroke-width="1.79247" stroke-linecap="round" stroke-linejoin="round"/>
<path d="M253.82 148.363C254.566 148.885 255.431 149.213 256.336 149.317C257.24 149.42 258.156 149.297 259.001 148.958" stroke="#303030" stroke-width="1.79247" stroke-linecap="round" stroke-linejoin="round"/>
<path d="M268.259 108.337C268.261 107.426 268.024 106.531 267.571 105.74C266.984 104.724 266.08 103.928 264.998 103.475C263.915 103.022 262.714 102.936 261.578 103.23C260.443 103.525 259.435 104.184 258.709 105.107C257.984 106.029 257.581 107.164 257.562 108.337" stroke="#303030" stroke-width="1.79247" stroke-miterlimit="10" stroke-linecap="round"/>
<path d="M265.302 116.214C265.297 114.923 264.976 113.654 264.369 112.516C263.761 111.378 262.885 110.406 261.816 109.683C256.452 106.072 248.723 111.588 250.256 117.805C250.793 119.973 252.353 121.641 254.19 122.816C257.574 124.989 262.54 125.288 264.578 121.189L264.609 121.122C264.609 121.122 265.056 124.895 268.923 125.351C269.423 125.428 269.934 125.394 270.419 125.251C270.904 125.109 271.352 124.861 271.731 124.526C272.11 124.192 272.411 123.778 272.613 123.314C272.814 122.85 272.911 122.347 272.897 121.842C275.968 125.565 276.423 130.782 274.466 135.14C274.819 134.353 276.75 134.662 277.273 134.894C279.606 135.927 280.652 138.863 279.919 141.233C279.235 143.441 277.34 145.197 275.333 146.427C275.163 146.526 275.019 146.665 274.915 146.832C274.81 146.999 274.748 147.188 274.732 147.385C274.717 147.581 274.749 147.778 274.827 147.959C274.904 148.14 275.024 148.3 275.176 148.425C276.634 149.532 278.372 150.211 280.195 150.384C282.018 150.558 283.853 150.219 285.493 149.406C287.133 148.593 288.514 147.338 289.48 145.783C290.446 144.227 290.959 142.433 290.96 140.602V140.477C292.7 140.259 294.316 139.465 295.552 138.221C296.787 136.977 297.57 135.355 297.776 133.614C297.982 131.873 297.599 130.113 296.687 128.615C295.776 127.117 294.389 125.968 292.748 125.351C293.333 124.486 293.644 123.466 293.642 122.423C293.642 121 293.077 119.636 292.071 118.63C291.065 117.624 289.701 117.059 288.278 117.059" stroke="#303030" stroke-width="1.79247" stroke-linecap="round" stroke-linejoin="round"/>
<path d="M268.259 105.58C269.461 103.922 270.722 103.001 272.921 103.001C274.289 103.002 275.622 103.431 276.734 104.226C277.847 105.022 278.683 106.146 279.125 107.44C279.067 107.261 280.913 106.599 281.097 106.546C281.823 106.336 282.576 106.234 283.332 106.242C285.358 106.298 287.286 107.133 288.712 108.575C290.138 110.016 290.954 111.952 290.989 113.979C290.988 115.171 290.708 116.345 290.171 117.408" stroke="#303030" stroke-width="1.79247" stroke-linecap="square" stroke-linejoin="round"/>
<path d="M7.725 503.216C6.39167 503.216 5.11667 503.016 3.9 502.616C2.68333 502.199 1.725 501.666 1.025 501.016L1.95 499.066C2.61667 499.649 3.46667 500.132 4.5 500.516C5.53333 500.899 6.60833 501.091 7.725 501.091C8.74167 501.091 9.56667 500.974 10.2 500.741C10.8333 500.507 11.3 500.191 11.6 499.791C11.9 499.374 12.05 498.907 12.05 498.391C12.05 497.791 11.85 497.307 11.45 496.941C11.0667 496.574 10.5583 496.282 9.925 496.066C9.30833 495.832 8.625 495.632 7.875 495.466C7.125 495.299 6.36667 495.107 5.6 494.891C4.85 494.657 4.15833 494.366 3.525 494.016C2.90833 493.666 2.40833 493.199 2.025 492.616C1.64167 492.016 1.45 491.249 1.45 490.316C1.45 489.416 1.68333 488.591 2.15 487.841C2.63333 487.074 3.36667 486.466 4.35 486.016C5.35 485.549 6.61667 485.316 8.15 485.316C9.16667 485.316 10.175 485.449 11.175 485.716C12.175 485.982 13.0417 486.366 13.775 486.866L12.95 488.866C12.2 488.366 11.4083 488.007 10.575 487.791C9.74167 487.557 8.93333 487.441 8.15 487.441C7.16667 487.441 6.35833 487.566 5.725 487.816C5.09167 488.066 4.625 488.399 4.325 488.816C4.04167 489.232 3.9 489.699 3.9 490.216C3.9 490.832 4.09167 491.324 4.475 491.691C4.875 492.057 5.38333 492.349 6 492.566C6.63333 492.782 7.325 492.982 8.075 493.166C8.825 493.332 9.575 493.524 10.325 493.741C11.0917 493.957 11.7833 494.241 12.4 494.591C13.0333 494.941 13.5417 495.407 13.925 495.991C14.3083 496.574 14.5 497.324 14.5 498.241C14.5 499.124 14.2583 499.949 13.775 500.716C13.2917 501.466 12.5417 502.074 11.525 502.541C10.525 502.991 9.25833 503.216 7.725 503.216ZM23.7023 503.166C22.2857 503.166 21.0357 502.874 19.9523 502.291C18.8857 501.707 18.0523 500.907 17.4523 499.891C16.869 498.874 16.5773 497.707 16.5773 496.391C16.5773 495.074 16.8607 493.907 17.4273 492.891C18.0107 491.874 18.8023 491.082 19.8023 490.516C20.819 489.932 21.9607 489.641 23.2273 489.641C24.5107 489.641 25.644 489.924 26.6273 490.491C27.6107 491.057 28.3773 491.857 28.9273 492.891C29.494 493.907 29.7773 495.099 29.7773 496.466C29.7773 496.566 29.769 496.682 29.7523 496.816C29.7523 496.949 29.744 497.074 29.7273 497.191H18.4523V495.466H28.4773L27.5023 496.066C27.519 495.216 27.344 494.457 26.9773 493.791C26.6107 493.124 26.1023 492.607 25.4523 492.241C24.819 491.857 24.0773 491.666 23.2273 491.666C22.394 491.666 21.6523 491.857 21.0023 492.241C20.3523 492.607 19.844 493.132 19.4773 493.816C19.1107 494.482 18.9273 495.249 18.9273 496.116V496.516C18.9273 497.399 19.1273 498.191 19.5273 498.891C19.944 499.574 20.519 500.107 21.2523 500.491C21.9857 500.874 22.8273 501.066 23.7773 501.066C24.5607 501.066 25.269 500.932 25.9023 500.666C26.5523 500.399 27.119 499.999 27.6023 499.466L28.9273 501.016C28.3273 501.716 27.5773 502.249 26.6773 502.616C25.794 502.982 24.8023 503.166 23.7023 503.166ZM33.11 503.016V484.466H35.51V503.016H33.11ZM45.9924 503.166C44.5757 503.166 43.3257 502.874 42.2424 502.291C41.1757 501.707 40.3424 500.907 39.7424 499.891C39.159 498.874 38.8674 497.707 38.8674 496.391C38.8674 495.074 39.1507 493.907 39.7174 492.891C40.3007 491.874 41.0924 491.082 42.0924 490.516C43.109 489.932 44.2507 489.641 45.5174 489.641C46.8007 489.641 47.9341 489.924 48.9174 490.491C49.9007 491.057 50.6674 491.857 51.2174 492.891C51.7841 493.907 52.0674 495.099 52.0674 496.466C52.0674 496.566 52.0591 496.682 52.0424 496.816C52.0424 496.949 52.034 497.074 52.0174 497.191H40.7424V495.466H50.7674L49.7924 496.066C49.8091 495.216 49.6341 494.457 49.2674 493.791C48.9007 493.124 48.3924 492.607 47.7424 492.241C47.1091 491.857 46.3674 491.666 45.5174 491.666C44.684 491.666 43.9424 491.857 43.2924 492.241C42.6424 492.607 42.134 493.132 41.7674 493.816C41.4007 494.482 41.2174 495.249 41.2174 496.116V496.516C41.2174 497.399 41.4174 498.191 41.8174 498.891C42.234 499.574 42.809 500.107 43.5424 500.491C44.2757 500.874 45.1174 501.066 46.0674 501.066C46.8507 501.066 47.559 500.932 48.1924 500.666C48.8424 500.399 49.409 499.999 49.8924 499.466L51.2174 501.016C50.6174 501.716 49.8674 502.249 48.9674 502.616C48.084 502.982 47.0924 503.166 45.9924 503.166ZM61.175 503.166C59.825 503.166 58.6167 502.874 57.55 502.291C56.5 501.707 55.675 500.907 55.075 499.891C54.475 498.874 54.175 497.707 54.175 496.391C54.175 495.074 54.475 493.907 55.075 492.891C55.675 491.874 56.5 491.082 57.55 490.516C58.6167 489.932 59.825 489.641 61.175 489.641C62.375 489.641 63.4417 489.882 64.375 490.366C65.325 490.832 66.0583 491.532 66.575 492.466L64.75 493.641C64.3167 492.991 63.7833 492.516 63.15 492.216C62.5333 491.899 61.8667 491.741 61.15 491.741C60.2833 491.741 59.5083 491.932 58.825 492.316C58.1417 492.699 57.6 493.241 57.2 493.941C56.8 494.624 56.6 495.441 56.6 496.391C56.6 497.341 56.8 498.166 57.2 498.866C57.6 499.566 58.1417 500.107 58.825 500.491C59.5083 500.874 60.2833 501.066 61.15 501.066C61.8667 501.066 62.5333 500.916 63.15 500.616C63.7833 500.299 64.3167 499.816 64.75 499.166L66.575 500.316C66.0583 501.232 65.325 501.941 64.375 502.441C63.4417 502.924 62.375 503.166 61.175 503.166ZM74.4031 503.166C73.0698 503.166 72.0365 502.807 71.3031 502.091C70.5698 501.374 70.2031 500.349 70.2031 499.016V486.866H72.6031V498.916C72.6031 499.632 72.7781 500.182 73.1281 500.566C73.4948 500.949 74.0115 501.141 74.6781 501.141C75.4281 501.141 76.0531 500.932 76.5531 500.516L77.3031 502.241C76.9365 502.557 76.4948 502.791 75.9781 502.941C75.4781 503.091 74.9531 503.166 74.4031 503.166ZM67.9531 491.741V489.766H76.4031V491.741H67.9531ZM95.1436 503.016V500.216L95.0186 499.691V494.916C95.0186 493.899 94.7186 493.116 94.1186 492.566C93.5352 491.999 92.6519 491.716 91.4686 491.716C90.6852 491.716 89.9186 491.849 89.1686 492.116C88.4186 492.366 87.7852 492.707 87.2686 493.141L86.2686 491.341C86.9519 490.791 87.7686 490.374 88.7186 490.091C89.6852 489.791 90.6936 489.641 91.7436 489.641C93.5602 489.641 94.9602 490.082 95.9436 490.966C96.9269 491.849 97.4186 493.199 97.4186 495.016V503.016H95.1436ZM90.7936 503.166C89.8102 503.166 88.9436 502.999 88.1936 502.666C87.4602 502.332 86.8936 501.874 86.4936 501.291C86.0936 500.691 85.8936 500.016 85.8936 499.266C85.8936 498.549 86.0602 497.899 86.3936 497.316C86.7436 496.732 87.3019 496.266 88.0686 495.916C88.8519 495.566 89.9019 495.391 91.2186 495.391H95.4186V497.116H91.3186C90.1186 497.116 89.3102 497.316 88.8936 497.716C88.4769 498.116 88.2686 498.599 88.2686 499.166C88.2686 499.816 88.5269 500.341 89.0436 500.741C89.5602 501.124 90.2769 501.316 91.1936 501.316C92.0936 501.316 92.8769 501.116 93.5436 500.716C94.2269 500.316 94.7186 499.732 95.0186 498.966L95.4936 500.616C95.1769 501.399 94.6186 502.024 93.8186 502.491C93.0186 502.941 92.0102 503.166 90.7936 503.166ZM125.149 489.641C126.215 489.641 127.157 489.849 127.974 490.266C128.79 490.682 129.424 491.316 129.874 492.166C130.34 493.016 130.574 494.091 130.574 495.391V503.016H128.174V495.666C128.174 494.382 127.874 493.416 127.274 492.766C126.674 492.116 125.832 491.791 124.749 491.791C123.949 491.791 123.249 491.957 122.649 492.291C122.049 492.624 121.582 493.116 121.249 493.766C120.932 494.416 120.774 495.224 120.774 496.191V503.016H118.374V495.666C118.374 494.382 118.074 493.416 117.474 492.766C116.89 492.116 116.049 491.791 114.949 491.791C114.165 491.791 113.474 491.957 112.874 492.291C112.274 492.624 111.807 493.116 111.474 493.766C111.14 494.416 110.974 495.224 110.974 496.191V503.016H108.574V489.766H110.874V493.291L110.499 492.391C110.915 491.524 111.557 490.849 112.424 490.366C113.29 489.882 114.299 489.641 115.449 489.641C116.715 489.641 117.807 489.957 118.724 490.591C119.64 491.207 120.24 492.149 120.524 493.416L119.549 493.016C119.949 491.999 120.649 491.182 121.649 490.566C122.649 489.949 123.815 489.641 125.149 489.641ZM140.89 503.166C139.473 503.166 138.223 502.874 137.14 502.291C136.073 501.707 135.24 500.907 134.64 499.891C134.057 498.874 133.765 497.707 133.765 496.391C133.765 495.074 134.048 493.907 134.615 492.891C135.198 491.874 135.99 491.082 136.99 490.516C138.007 489.932 139.148 489.641 140.415 489.641C141.698 489.641 142.832 489.924 143.815 490.491C144.798 491.057 145.565 491.857 146.115 492.891C146.682 493.907 146.965 495.099 146.965 496.466C146.965 496.566 146.957 496.682 146.94 496.816C146.94 496.949 146.932 497.074 146.915 497.191H135.64V495.466H145.665L144.69 496.066C144.707 495.216 144.532 494.457 144.165 493.791C143.798 493.124 143.29 492.607 142.64 492.241C142.007 491.857 141.265 491.666 140.415 491.666C139.582 491.666 138.84 491.857 138.19 492.241C137.54 492.607 137.032 493.132 136.665 493.816C136.298 494.482 136.115 495.249 136.115 496.116V496.516C136.115 497.399 136.315 498.191 136.715 498.891C137.132 499.574 137.707 500.107 138.44 500.491C139.173 500.874 140.015 501.066 140.965 501.066C141.748 501.066 142.457 500.932 143.09 500.666C143.74 500.399 144.307 499.999 144.79 499.466L146.115 501.016C145.515 501.716 144.765 502.249 143.865 502.616C142.982 502.982 141.99 503.166 140.89 503.166ZM154.097 503.166C152.997 503.166 151.947 503.016 150.947 502.716C149.964 502.416 149.189 502.049 148.622 501.616L149.622 499.716C150.189 500.099 150.889 500.424 151.722 500.691C152.556 500.957 153.406 501.091 154.272 501.091C155.389 501.091 156.189 500.932 156.672 500.616C157.172 500.299 157.422 499.857 157.422 499.291C157.422 498.874 157.272 498.549 156.972 498.316C156.672 498.082 156.272 497.907 155.772 497.791C155.289 497.674 154.747 497.574 154.147 497.491C153.547 497.391 152.947 497.274 152.347 497.141C151.747 496.991 151.197 496.791 150.697 496.541C150.197 496.274 149.797 495.916 149.497 495.466C149.197 494.999 149.047 494.382 149.047 493.616C149.047 492.816 149.272 492.116 149.722 491.516C150.172 490.916 150.806 490.457 151.622 490.141C152.456 489.807 153.439 489.641 154.572 489.641C155.439 489.641 156.314 489.749 157.197 489.966C158.097 490.166 158.831 490.457 159.397 490.841L158.372 492.741C157.772 492.341 157.147 492.066 156.497 491.916C155.847 491.766 155.197 491.691 154.547 491.691C153.497 491.691 152.714 491.866 152.197 492.216C151.681 492.549 151.422 492.982 151.422 493.516C151.422 493.966 151.572 494.316 151.872 494.566C152.189 494.799 152.589 494.982 153.072 495.116C153.572 495.249 154.122 495.366 154.722 495.466C155.322 495.549 155.922 495.666 156.522 495.816C157.122 495.949 157.664 496.141 158.147 496.391C158.647 496.641 159.047 496.991 159.347 497.441C159.664 497.891 159.822 498.491 159.822 499.241C159.822 500.041 159.589 500.732 159.122 501.316C158.656 501.899 157.997 502.357 157.147 502.691C156.297 503.007 155.281 503.166 154.097 503.166ZM166.622 503.166C165.522 503.166 164.472 503.016 163.472 502.716C162.489 502.416 161.714 502.049 161.147 501.616L162.147 499.716C162.714 500.099 163.414 500.424 164.247 500.691C165.08 500.957 165.93 501.091 166.797 501.091C167.914 501.091 168.714 500.932 169.197 500.616C169.697 500.299 169.947 499.857 169.947 499.291C169.947 498.874 169.797 498.549 169.497 498.316C169.197 498.082 168.797 497.907 168.297 497.791C167.814 497.674 167.272 497.574 166.672 497.491C166.072 497.391 165.472 497.274 164.872 497.141C164.272 496.991 163.722 496.791 163.222 496.541C162.722 496.274 162.322 495.916 162.022 495.466C161.722 494.999 161.572 494.382 161.572 493.616C161.572 492.816 161.797 492.116 162.247 491.516C162.697 490.916 163.33 490.457 164.147 490.141C164.98 489.807 165.964 489.641 167.097 489.641C167.964 489.641 168.839 489.749 169.722 489.966C170.622 490.166 171.355 490.457 171.922 490.841L170.897 492.741C170.297 492.341 169.672 492.066 169.022 491.916C168.372 491.766 167.722 491.691 167.072 491.691C166.022 491.691 165.239 491.866 164.722 492.216C164.205 492.549 163.947 492.982 163.947 493.516C163.947 493.966 164.097 494.316 164.397 494.566C164.714 494.799 165.114 494.982 165.597 495.116C166.097 495.249 166.647 495.366 167.247 495.466C167.847 495.549 168.447 495.666 169.047 495.816C169.647 495.949 170.189 496.141 170.672 496.391C171.172 496.641 171.572 496.991 171.872 497.441C172.189 497.891 172.347 498.491 172.347 499.241C172.347 500.041 172.114 500.732 171.647 501.316C171.18 501.899 170.522 502.357 169.672 502.691C168.822 503.007 167.805 503.166 166.622 503.166ZM183.571 503.016V500.216L183.446 499.691V494.916C183.446 493.899 183.146 493.116 182.546 492.566C181.963 491.999 181.08 491.716 179.896 491.716C179.113 491.716 178.346 491.849 177.596 492.116C176.846 492.366 176.213 492.707 175.696 493.141L174.696 491.341C175.38 490.791 176.196 490.374 177.146 490.091C178.113 489.791 179.121 489.641 180.171 489.641C181.988 489.641 183.388 490.082 184.371 490.966C185.355 491.849 185.846 493.199 185.846 495.016V503.016H183.571ZM179.221 503.166C178.238 503.166 177.371 502.999 176.621 502.666C175.888 502.332 175.321 501.874 174.921 501.291C174.521 500.691 174.321 500.016 174.321 499.266C174.321 498.549 174.488 497.899 174.821 497.316C175.171 496.732 175.73 496.266 176.496 495.916C177.28 495.566 178.33 495.391 179.646 495.391H183.846V497.116H179.746C178.546 497.116 177.738 497.316 177.321 497.716C176.905 498.116 176.696 498.599 176.696 499.166C176.696 499.816 176.955 500.341 177.471 500.741C177.988 501.124 178.705 501.316 179.621 501.316C180.521 501.316 181.305 501.116 181.971 500.716C182.655 500.316 183.146 499.732 183.446 498.966L183.921 500.616C183.605 501.399 183.046 502.024 182.246 502.491C181.446 502.941 180.438 503.166 179.221 503.166ZM196.088 508.016C194.871 508.016 193.688 507.841 192.538 507.491C191.404 507.157 190.479 506.674 189.763 506.041L190.913 504.191C191.529 504.724 192.288 505.141 193.188 505.441C194.088 505.757 195.029 505.916 196.013 505.916C197.579 505.916 198.729 505.549 199.463 504.816C200.196 504.082 200.563 502.966 200.563 501.466V498.666L200.813 496.041L200.688 493.391V489.766H202.963V501.216C202.963 503.549 202.379 505.266 201.213 506.366C200.046 507.466 198.338 508.016 196.088 508.016ZM195.788 502.466C194.504 502.466 193.354 502.199 192.338 501.666C191.338 501.116 190.538 500.357 189.938 499.391C189.354 498.424 189.063 497.307 189.063 496.041C189.063 494.757 189.354 493.641 189.938 492.691C190.538 491.724 191.338 490.974 192.338 490.441C193.354 489.907 194.504 489.641 195.788 489.641C196.921 489.641 197.954 489.874 198.888 490.341C199.821 490.791 200.563 491.491 201.113 492.441C201.679 493.391 201.963 494.591 201.963 496.041C201.963 497.474 201.679 498.666 201.113 499.616C200.563 500.566 199.821 501.282 198.888 501.766C197.954 502.232 196.921 502.466 195.788 502.466ZM196.063 500.366C196.946 500.366 197.729 500.182 198.413 499.816C199.096 499.449 199.629 498.941 200.013 498.291C200.413 497.641 200.613 496.891 200.613 496.041C200.613 495.191 200.413 494.441 200.013 493.791C199.629 493.141 199.096 492.641 198.413 492.291C197.729 491.924 196.946 491.741 196.063 491.741C195.179 491.741 194.388 491.924 193.688 492.291C193.004 492.641 192.463 493.141 192.063 493.791C191.679 494.441 191.488 495.191 191.488 496.041C191.488 496.891 191.679 497.641 192.063 498.291C192.463 498.941 193.004 499.449 193.688 499.816C194.388 500.182 195.179 500.366 196.063 500.366ZM213.448 503.166C212.032 503.166 210.782 502.874 209.698 502.291C208.632 501.707 207.798 500.907 207.198 499.891C206.615 498.874 206.323 497.707 206.323 496.391C206.323 495.074 206.607 493.907 207.173 492.891C207.757 491.874 208.548 491.082 209.548 490.516C210.565 489.932 211.707 489.641 212.973 489.641C214.257 489.641 215.39 489.924 216.373 490.491C217.357 491.057 218.123 491.857 218.673 492.891C219.24 493.907 219.523 495.099 219.523 496.466C219.523 496.566 219.515 496.682 219.498 496.816C219.498 496.949 219.49 497.074 219.473 497.191H208.198V495.466H218.223L217.248 496.066C217.265 495.216 217.09 494.457 216.723 493.791C216.357 493.124 215.848 492.607 215.198 492.241C214.565 491.857 213.823 491.666 212.973 491.666C212.14 491.666 211.398 491.857 210.748 492.241C210.098 492.607 209.59 493.132 209.223 493.816C208.857 494.482 208.673 495.249 208.673 496.116V496.516C208.673 497.399 208.873 498.191 209.273 498.891C209.69 499.574 210.265 500.107 210.998 500.491C211.732 500.874 212.573 501.066 213.523 501.066C214.307 501.066 215.015 500.932 215.648 500.666C216.298 500.399 216.865 499.999 217.348 499.466L218.673 501.016C218.073 501.716 217.323 502.249 216.423 502.616C215.54 502.982 214.548 503.166 213.448 503.166ZM234.12 503.166C232.787 503.166 231.753 502.807 231.02 502.091C230.287 501.374 229.92 500.349 229.92 499.016V486.866H232.32V498.916C232.32 499.632 232.495 500.182 232.845 500.566C233.212 500.949 233.728 501.141 234.395 501.141C235.145 501.141 235.77 500.932 236.27 500.516L237.02 502.241C236.653 502.557 236.212 502.791 235.695 502.941C235.195 503.091 234.67 503.166 234.12 503.166ZM227.67 491.741V489.766H236.12V491.741H227.67ZM246.996 489.641C248.08 489.641 249.03 489.849 249.846 490.266C250.68 490.682 251.33 491.316 251.796 492.166C252.263 493.016 252.496 494.091 252.496 495.391V503.016H250.096V495.666C250.096 494.382 249.78 493.416 249.146 492.766C248.53 492.116 247.655 491.791 246.521 491.791C245.671 491.791 244.93 491.957 244.296 492.291C243.663 492.624 243.171 493.116 242.821 493.766C242.488 494.416 242.321 495.224 242.321 496.191V503.016H239.921V484.466H242.321V493.341L241.846 492.391C242.28 491.524 242.946 490.849 243.846 490.366C244.746 489.882 245.796 489.641 246.996 489.641ZM256.938 503.016V489.766H259.238V493.366L259.013 492.466C259.38 491.549 259.996 490.849 260.863 490.366C261.73 489.882 262.796 489.641 264.063 489.641V491.966C263.963 491.949 263.863 491.941 263.763 491.941C263.68 491.941 263.596 491.941 263.513 491.941C262.23 491.941 261.213 492.324 260.463 493.091C259.713 493.857 259.338 494.966 259.338 496.416V503.016H256.938ZM272.799 503.166C271.382 503.166 270.132 502.874 269.049 502.291C267.982 501.707 267.149 500.907 266.549 499.891C265.966 498.874 265.674 497.707 265.674 496.391C265.674 495.074 265.957 493.907 266.524 492.891C267.107 491.874 267.899 491.082 268.899 490.516C269.916 489.932 271.057 489.641 272.324 489.641C273.607 489.641 274.741 489.924 275.724 490.491C276.707 491.057 277.474 491.857 278.024 492.891C278.591 493.907 278.874 495.099 278.874 496.466C278.874 496.566 278.866 496.682 278.849 496.816C278.849 496.949 278.841 497.074 278.824 497.191H267.549V495.466H277.574L276.599 496.066C276.616 495.216 276.441 494.457 276.074 493.791C275.707 493.124 275.199 492.607 274.549 492.241C273.916 491.857 273.174 491.666 272.324 491.666C271.491 491.666 270.749 491.857 270.099 492.241C269.449 492.607 268.941 493.132 268.574 493.816C268.207 494.482 268.024 495.249 268.024 496.116V496.516C268.024 497.399 268.224 498.191 268.624 498.891C269.041 499.574 269.616 500.107 270.349 500.491C271.082 500.874 271.924 501.066 272.874 501.066C273.657 501.066 274.366 500.932 274.999 500.666C275.649 500.399 276.216 499.999 276.699 499.466L278.024 501.016C277.424 501.716 276.674 502.249 275.774 502.616C274.891 502.982 273.899 503.166 272.799 503.166ZM290.065 503.016V500.216L289.94 499.691V494.916C289.94 493.899 289.64 493.116 289.04 492.566C288.457 491.999 287.574 491.716 286.39 491.716C285.607 491.716 284.84 491.849 284.09 492.116C283.34 492.366 282.707 492.707 282.19 493.141L281.19 491.341C281.874 490.791 282.69 490.374 283.64 490.091C284.607 489.791 285.615 489.641 286.665 489.641C288.482 489.641 289.882 490.082 290.865 490.966C291.849 491.849 292.34 493.199 292.34 495.016V503.016H290.065ZM285.715 503.166C284.732 503.166 283.865 502.999 283.115 502.666C282.382 502.332 281.815 501.874 281.415 501.291C281.015 500.691 280.815 500.016 280.815 499.266C280.815 498.549 280.982 497.899 281.315 497.316C281.665 496.732 282.224 496.266 282.99 495.916C283.774 495.566 284.824 495.391 286.14 495.391H290.34V497.116H286.24C285.04 497.116 284.232 497.316 283.815 497.716C283.399 498.116 283.19 498.599 283.19 499.166C283.19 499.816 283.449 500.341 283.965 500.741C284.482 501.124 285.199 501.316 286.115 501.316C287.015 501.316 287.799 501.116 288.465 500.716C289.149 500.316 289.64 499.732 289.94 498.966L290.415 500.616C290.099 501.399 289.54 502.024 288.74 502.491C287.94 502.941 286.932 503.166 285.715 503.166ZM302.257 503.166C300.974 503.166 299.824 502.882 298.807 502.316C297.807 501.749 297.015 500.957 296.432 499.941C295.849 498.924 295.557 497.741 295.557 496.391C295.557 495.041 295.849 493.866 296.432 492.866C297.015 491.849 297.807 491.057 298.807 490.491C299.824 489.924 300.974 489.641 302.257 489.641C303.374 489.641 304.382 489.891 305.282 490.391C306.182 490.891 306.899 491.641 307.432 492.641C307.982 493.641 308.257 494.891 308.257 496.391C308.257 497.891 307.99 499.141 307.457 500.141C306.94 501.141 306.232 501.899 305.332 502.416C304.432 502.916 303.407 503.166 302.257 503.166ZM302.457 501.066C303.29 501.066 304.04 500.874 304.707 500.491C305.39 500.107 305.924 499.566 306.307 498.866C306.707 498.149 306.907 497.324 306.907 496.391C306.907 495.441 306.707 494.624 306.307 493.941C305.924 493.241 305.39 492.699 304.707 492.316C304.04 491.932 303.29 491.741 302.457 491.741C301.607 491.741 300.849 491.932 300.182 492.316C299.515 492.699 298.982 493.241 298.582 493.941C298.182 494.624 297.982 495.441 297.982 496.391C297.982 497.324 298.182 498.149 298.582 498.866C298.982 499.566 299.515 500.107 300.182 500.491C300.849 500.874 301.607 501.066 302.457 501.066ZM306.982 503.016V499.441L307.132 496.366L306.882 493.291V484.466H309.282V503.016H306.982ZM325.087 503.166C323.753 503.166 322.72 502.807 321.987 502.091C321.253 501.374 320.887 500.349 320.887 499.016V486.866H323.287V498.916C323.287 499.632 323.462 500.182 323.812 500.566C324.178 500.949 324.695 501.141 325.362 501.141C326.112 501.141 326.737 500.932 327.237 500.516L327.987 502.241C327.62 502.557 327.178 502.791 326.662 502.941C326.162 503.091 325.637 503.166 325.087 503.166ZM318.637 491.741V489.766H327.087V491.741H318.637ZM336.124 503.166C334.79 503.166 333.607 502.874 332.574 502.291C331.54 501.707 330.724 500.907 330.124 499.891C329.524 498.857 329.224 497.691 329.224 496.391C329.224 495.074 329.524 493.907 330.124 492.891C330.724 491.874 331.54 491.082 332.574 490.516C333.607 489.932 334.79 489.641 336.124 489.641C337.44 489.641 338.615 489.932 339.649 490.516C340.699 491.082 341.515 491.874 342.099 492.891C342.699 493.891 342.999 495.057 342.999 496.391C342.999 497.707 342.699 498.874 342.099 499.891C341.515 500.907 340.699 501.707 339.649 502.291C338.615 502.874 337.44 503.166 336.124 503.166ZM336.124 501.066C336.974 501.066 337.732 500.874 338.399 500.491C339.082 500.107 339.615 499.566 339.999 498.866C340.382 498.149 340.574 497.324 340.574 496.391C340.574 495.441 340.382 494.624 339.999 493.941C339.615 493.241 339.082 492.699 338.399 492.316C337.732 491.932 336.974 491.741 336.124 491.741C335.274 491.741 334.515 491.932 333.849 492.316C333.182 492.699 332.649 493.241 332.249 493.941C331.849 494.624 331.649 495.441 331.649 496.391C331.649 497.324 331.849 498.149 332.249 498.866C332.649 499.566 333.182 500.107 333.849 500.491C334.515 500.874 335.274 501.066 336.124 501.066ZM353.032 503.016V489.766H355.332V493.366L355.107 492.466C355.474 491.549 356.09 490.849 356.957 490.366C357.824 489.882 358.89 489.641 360.157 489.641V491.966C360.057 491.949 359.957 491.941 359.857 491.941C359.774 491.941 359.69 491.941 359.607 491.941C358.324 491.941 357.307 492.324 356.557 493.091C355.807 493.857 355.432 494.966 355.432 496.416V503.016H353.032ZM368.893 503.166C367.476 503.166 366.226 502.874 365.143 502.291C364.076 501.707 363.243 500.907 362.643 499.891C362.059 498.874 361.768 497.707 361.768 496.391C361.768 495.074 362.051 493.907 362.618 492.891C363.201 491.874 363.993 491.082 364.993 490.516C366.009 489.932 367.151 489.641 368.418 489.641C369.701 489.641 370.834 489.924 371.818 490.491C372.801 491.057 373.568 491.857 374.118 492.891C374.684 493.907 374.968 495.099 374.968 496.466C374.968 496.566 374.959 496.682 374.943 496.816C374.943 496.949 374.934 497.074 374.918 497.191H363.643V495.466H373.668L372.693 496.066C372.709 495.216 372.534 494.457 372.168 493.791C371.801 493.124 371.293 492.607 370.643 492.241C370.009 491.857 369.268 491.666 368.418 491.666C367.584 491.666 366.843 491.857 366.193 492.241C365.543 492.607 365.034 493.132 364.668 493.816C364.301 494.482 364.118 495.249 364.118 496.116V496.516C364.118 497.399 364.318 498.191 364.718 498.891C365.134 499.574 365.709 500.107 366.443 500.491C367.176 500.874 368.018 501.066 368.968 501.066C369.751 501.066 370.459 500.932 371.093 500.666C371.743 500.399 372.309 499.999 372.793 499.466L374.118 501.016C373.518 501.716 372.768 502.249 371.868 502.616C370.984 502.982 369.993 503.166 368.893 503.166ZM386.159 503.016V500.216L386.034 499.691V494.916C386.034 493.899 385.734 493.116 385.134 492.566C384.551 491.999 383.668 491.716 382.484 491.716C381.701 491.716 380.934 491.849 380.184 492.116C379.434 492.366 378.801 492.707 378.284 493.141L377.284 491.341C377.968 490.791 378.784 490.374 379.734 490.091C380.701 489.791 381.709 489.641 382.759 489.641C384.576 489.641 385.976 490.082 386.959 490.966C387.943 491.849 388.434 493.199 388.434 495.016V503.016H386.159ZM381.809 503.166C380.826 503.166 379.959 502.999 379.209 502.666C378.476 502.332 377.909 501.874 377.509 501.291C377.109 500.691 376.909 500.016 376.909 499.266C376.909 498.549 377.076 497.899 377.409 497.316C377.759 496.732 378.318 496.266 379.084 495.916C379.868 495.566 380.918 495.391 382.234 495.391H386.434V497.116H382.334C381.134 497.116 380.326 497.316 379.909 497.716C379.493 498.116 379.284 498.599 379.284 499.166C379.284 499.816 379.543 500.341 380.059 500.741C380.576 501.124 381.293 501.316 382.209 501.316C383.109 501.316 383.893 501.116 384.559 500.716C385.243 500.316 385.734 499.732 386.034 498.966L386.509 500.616C386.193 501.399 385.634 502.024 384.834 502.491C384.034 502.941 383.026 503.166 381.809 503.166ZM398.351 503.166C397.067 503.166 395.917 502.882 394.901 502.316C393.901 501.749 393.109 500.957 392.526 499.941C391.942 498.924 391.651 497.741 391.651 496.391C391.651 495.041 391.942 493.866 392.526 492.866C393.109 491.849 393.901 491.057 394.901 490.491C395.917 489.924 397.067 489.641 398.351 489.641C399.467 489.641 400.476 489.891 401.376 490.391C402.276 490.891 402.992 491.641 403.526 492.641C404.076 493.641 404.351 494.891 404.351 496.391C404.351 497.891 404.084 499.141 403.551 500.141C403.034 501.141 402.326 501.899 401.426 502.416C400.526 502.916 399.501 503.166 398.351 503.166ZM398.551 501.066C399.384 501.066 400.134 500.874 400.801 500.491C401.484 500.107 402.017 499.566 402.401 498.866C402.801 498.149 403.001 497.324 403.001 496.391C403.001 495.441 402.801 494.624 402.401 493.941C402.017 493.241 401.484 492.699 400.801 492.316C400.134 491.932 399.384 491.741 398.551 491.741C397.701 491.741 396.942 491.932 396.276 492.316C395.609 492.699 395.076 493.241 394.676 493.941C394.276 494.624 394.076 495.441 394.076 496.391C394.076 497.324 394.276 498.149 394.676 498.866C395.076 499.566 395.609 500.107 396.276 500.491C396.942 500.874 397.701 501.066 398.551 501.066ZM403.076 503.016V499.441L403.226 496.366L402.976 493.291V484.466H405.376V503.016H403.076ZM416.63 503.016V489.766H419.03V503.016H416.63ZM417.83 487.216C417.364 487.216 416.972 487.066 416.655 486.766C416.355 486.466 416.205 486.099 416.205 485.666C416.205 485.216 416.355 484.841 416.655 484.541C416.972 484.241 417.364 484.091 417.83 484.091C418.297 484.091 418.68 484.241 418.98 484.541C419.297 484.824 419.455 485.182 419.455 485.616C419.455 486.066 419.305 486.449 419.005 486.766C418.705 487.066 418.314 487.216 417.83 487.216ZM428.163 503.166C426.83 503.166 425.796 502.807 425.063 502.091C424.33 501.374 423.963 500.349 423.963 499.016V486.866H426.363V498.916C426.363 499.632 426.538 500.182 426.888 500.566C427.255 500.949 427.771 501.141 428.438 501.141C429.188 501.141 429.813 500.932 430.313 500.516L431.063 502.241C430.696 502.557 430.255 502.791 429.738 502.941C429.238 503.091 428.713 503.166 428.163 503.166ZM421.713 491.741V489.766H430.163V491.741H421.713ZM447.753 489.641C448.837 489.641 449.787 489.849 450.603 490.266C451.437 490.682 452.087 491.316 452.553 492.166C453.02 493.016 453.253 494.091 453.253 495.391V503.016H450.853V495.666C450.853 494.382 450.537 493.416 449.903 492.766C449.287 492.116 448.412 491.791 447.278 491.791C446.428 491.791 445.687 491.957 445.053 492.291C444.42 492.624 443.928 493.116 443.578 493.766C443.245 494.416 443.078 495.224 443.078 496.191V503.016H440.678V484.466H443.078V493.341L442.603 492.391C443.037 491.524 443.703 490.849 444.603 490.366C445.503 489.882 446.553 489.641 447.753 489.641ZM463.595 503.166C462.178 503.166 460.928 502.874 459.845 502.291C458.778 501.707 457.945 500.907 457.345 499.891C456.762 498.874 456.47 497.707 456.47 496.391C456.47 495.074 456.753 493.907 457.32 492.891C457.903 491.874 458.695 491.082 459.695 490.516C460.712 489.932 461.853 489.641 463.12 489.641C464.403 489.641 465.537 489.924 466.52 490.491C467.503 491.057 468.27 491.857 468.82 492.891C469.387 493.907 469.67 495.099 469.67 496.466C469.67 496.566 469.662 496.682 469.645 496.816C469.645 496.949 469.637 497.074 469.62 497.191H458.345V495.466H468.37L467.395 496.066C467.412 495.216 467.237 494.457 466.87 493.791C466.503 493.124 465.995 492.607 465.345 492.241C464.712 491.857 463.97 491.666 463.12 491.666C462.287 491.666 461.545 491.857 460.895 492.241C460.245 492.607 459.737 493.132 459.37 493.816C459.003 494.482 458.82 495.249 458.82 496.116V496.516C458.82 497.399 459.02 498.191 459.42 498.891C459.837 499.574 460.412 500.107 461.145 500.491C461.878 500.874 462.72 501.066 463.67 501.066C464.453 501.066 465.162 500.932 465.795 500.666C466.445 500.399 467.012 499.999 467.495 499.466L468.82 501.016C468.22 501.716 467.47 502.249 466.57 502.616C465.687 502.982 464.695 503.166 463.595 503.166ZM473.003 503.016V489.766H475.303V493.366L475.078 492.466C475.444 491.549 476.061 490.849 476.928 490.366C477.794 489.882 478.861 489.641 480.128 489.641V491.966C480.028 491.949 479.928 491.941 479.828 491.941C479.744 491.941 479.661 491.941 479.578 491.941C478.294 491.941 477.278 492.324 476.528 493.091C475.778 493.857 475.403 494.966 475.403 496.416V503.016H473.003ZM488.863 503.166C487.447 503.166 486.197 502.874 485.113 502.291C484.047 501.707 483.213 500.907 482.613 499.891C482.03 498.874 481.738 497.707 481.738 496.391C481.738 495.074 482.022 493.907 482.588 492.891C483.172 491.874 483.963 491.082 484.963 490.516C485.98 489.932 487.122 489.641 488.388 489.641C489.672 489.641 490.805 489.924 491.788 490.491C492.772 491.057 493.538 491.857 494.088 492.891C494.655 493.907 494.938 495.099 494.938 496.466C494.938 496.566 494.93 496.682 494.913 496.816C494.913 496.949 494.905 497.074 494.888 497.191H483.613V495.466H493.638L492.663 496.066C492.68 495.216 492.505 494.457 492.138 493.791C491.772 493.124 491.263 492.607 490.613 492.241C489.98 491.857 489.238 491.666 488.388 491.666C487.555 491.666 486.813 491.857 486.163 492.241C485.513 492.607 485.005 493.132 484.638 493.816C484.272 494.482 484.088 495.249 484.088 496.116V496.516C484.088 497.399 484.288 498.191 484.688 498.891C485.105 499.574 485.68 500.107 486.413 500.491C487.147 500.874 487.988 501.066 488.938 501.066C489.722 501.066 490.43 500.932 491.063 500.666C491.713 500.399 492.28 499.999 492.763 499.466L494.088 501.016C493.488 501.716 492.738 502.249 491.838 502.616C490.955 502.982 489.963 503.166 488.863 503.166ZM498.846 503.166C498.379 503.166 497.979 503.007 497.646 502.691C497.313 502.357 497.146 501.941 497.146 501.441C497.146 500.941 497.313 500.532 497.646 500.216C497.979 499.899 498.379 499.741 498.846 499.741C499.296 499.741 499.679 499.899 499.996 500.216C500.329 500.532 500.496 500.941 500.496 501.441C500.496 501.941 500.329 502.357 499.996 502.691C499.679 503.007 499.296 503.166 498.846 503.166Z" fill="#69315E"/>
</svg>
