<svg width="499" height="405" viewBox="0 0 499 405" fill="none" xmlns="http://www.w3.org/2000/svg">
<path d="M380.065 275.458C380.065 304.056 372.841 330.967 360.119 354.469C360.119 354.469 279.325 354.469 216.055 354.469C152.307 354.469 66.794 354.469 66.794 354.469C54.4644 331.248 47.3252 303.579 47.3252 275.458C47.3252 183.626 121.811 109.181 213.695 109.181C305.578 109.181 380.065 183.626 380.065 275.458Z" fill="#D0D6FF"/>
<path d="M497.612 238.95H313.944C321.378 189.295 316.738 0.401367 316.738 0.401367H450.783C468.167 0.401367 494.829 16.2385 494.893 30.4439C495.394 136.995 497.623 238.95 497.623 238.95H497.612Z" fill="white" stroke="#69315E" stroke-width="0.799855" stroke-miterlimit="10"/>
<path d="M375.852 35.9364C371.128 36.2457 347.239 36.7256 343.752 36.2457C339.624 35.7658 336.308 33.1849 336.308 29.4416C336.308 25.6983 339.08 22.6375 343.752 22.6375C348.423 22.6375 365.582 22.6375 375.852 22.3282C380.481 22.1149 383.296 25.389 383.296 29.1323C383.296 32.8756 380.577 35.6272 375.852 35.9364Z" fill="#69315E"/>
<path d="M364.325 139.298C360.976 139.522 344.062 139.853 341.588 139.522C338.666 139.181 336.319 137.357 336.319 134.702C336.319 132.046 338.282 129.881 341.588 129.881C344.894 129.881 357.052 129.881 364.325 129.657C367.599 129.508 369.593 131.822 369.593 134.478C369.593 137.133 367.674 139.074 364.325 139.298Z" fill="#69315E"/>
<path d="M472.274 57.04C459.828 57.8079 390.422 57.7332 384.887 57.5519C379.352 57.3706 378.019 57.4026 374.883 57.2107C373.134 57.1467 371.748 55.7069 371.801 54.0113C371.855 52.3049 373.337 50.9611 375.097 51.0251C375.097 51.0251 377.432 51.0998 385.1 51.3664C409.672 52.1982 472.487 50.8545 472.487 50.8545C474.236 50.9185 475.622 52.3582 475.569 54.0539C475.516 55.7603 474.033 57.104 472.274 57.04Z" fill="#D0D6FF"/>
<path d="M472.123 75.7695C459.678 76.5374 390.272 76.4627 384.737 76.2814C379.202 76.1001 377.868 76.1321 374.733 75.9402C372.984 75.8762 371.598 74.4364 371.651 72.7407C371.704 71.0344 373.187 69.6906 374.946 69.7546C374.946 69.7546 377.282 69.8293 384.95 70.0959C409.521 70.9277 472.337 69.584 472.337 69.584C474.086 69.648 475.472 71.0877 475.419 72.7834C475.365 74.4898 473.883 75.8335 472.123 75.7695Z" fill="#D0D6FF"/>
<path d="M460.276 162.814C447.83 163.582 378.424 163.508 372.889 163.326C367.354 163.145 366.021 163.177 362.885 162.985C361.136 162.921 359.75 161.481 359.803 159.786C359.857 158.079 361.339 156.736 363.099 156.8C363.099 156.8 365.434 156.874 373.102 157.141C397.674 157.973 460.489 156.629 460.489 156.629C462.238 156.693 463.624 158.133 463.571 159.828C463.518 161.535 462.035 162.878 460.276 162.814Z" fill="#D0D6FF"/>
<path d="M472.38 95.8818C459.934 96.6497 355.537 96.575 350.002 96.3937C344.467 96.2124 343.134 96.2444 339.999 96.0525C338.25 95.9885 336.863 94.5487 336.917 92.853C336.97 91.1467 338.452 89.8029 340.212 89.8669C340.212 89.8669 342.548 89.9416 350.215 90.2082C374.787 91.04 472.593 89.6963 472.593 89.6963C474.342 89.7603 475.729 91.2 475.675 92.8957C475.622 94.6021 474.14 95.9458 472.38 95.8818Z" fill="#D0D6FF"/>
<path d="M472.38 117.063C459.934 117.831 355.537 117.757 350.002 117.575C344.467 117.394 343.134 117.426 339.999 117.234C338.25 117.17 336.863 115.73 336.917 114.035C336.97 112.328 338.452 110.985 340.212 111.049C340.212 111.049 342.548 111.123 350.215 111.39C374.787 112.222 472.593 110.878 472.593 110.878C474.342 110.942 475.729 112.382 475.675 114.077C475.622 115.784 474.14 117.127 472.38 117.063Z" fill="#D0D6FF"/>
<path d="M345.426 71.2151C345.426 66.7999 345.586 60.0278 345.48 53.2877C345.48 53.1597 345.48 53.0637 345.48 52.9891C345.48 52.9144 345.437 52.8504 345.384 52.7758C345.33 52.7011 345.224 52.6585 345.096 52.6585C344.541 52.6265 343.741 52.5838 342.696 52.5198C341.64 52.4559 340.712 52.4985 340.254 52.4772C340.254 52.4772 340.115 53.725 340.115 54.5675C340.115 57.2443 339.422 58.2788 339.219 58.2681C338.771 58.2468 338.388 58.0548 338.057 57.7136C337.726 57.3723 337.492 56.9564 337.332 56.4765C337.172 55.9965 337.065 55.5486 337.001 55.1434C336.937 54.7381 336.905 54.4182 336.927 54.1835C336.99 53.0851 336.969 49.907 337.15 49.4697H337.257C337.257 49.4697 337.332 49.4697 337.364 49.4804L347.837 49.651C347.837 49.651 356.027 49.683 359.525 49.5764H359.632C359.632 49.5764 359.706 49.5764 359.738 49.587C359.877 50.0456 359.77 53.0851 359.706 54.1835C359.696 54.4075 359.632 54.7274 359.525 55.122C359.418 55.5273 359.258 55.9539 359.045 56.4125C358.832 56.8711 358.459 57.2976 358.096 57.5963C357.733 57.8949 357.328 58.0335 356.88 58.0122C356.678 58.0015 356.528 56.6578 356.432 53.9809C356.336 51.3041 356.507 53.693 356.454 52.7971C355.995 52.7758 353.446 52.8611 352.401 52.7971C351.356 52.7331 350.545 52.6905 350.001 52.6585C349.81 52.6585 349.692 52.6905 349.639 52.7971C349.586 52.9038 349.554 53.0531 349.543 53.2557C349.596 60.1558 349.5 67.909 349.5 71.2258C349.5 71.4071 349.5 71.5457 349.5 71.6417C349.511 71.7484 349.543 71.8657 349.607 71.9936C349.66 72.1216 349.767 72.1429 349.937 72.2176C350.097 72.2923 350.716 72.2389 350.972 72.2496C351.516 72.2816 351.889 72.3029 352.273 72.4629C352.657 72.6229 352.838 72.8468 352.817 73.1241C352.732 74.6812 352.476 75.6303 352.07 75.9609C350.321 75.737 348.487 75.8436 347.229 75.769C345.992 75.6943 344.466 75.8543 342.653 75.8756C342.291 75.5023 342.142 74.5318 342.238 72.9748C342.248 72.6975 342.461 72.4949 342.856 72.3776C343.251 72.2603 343.72 72.2176 344.253 72.2496C344.712 72.2709 345.021 72.1963 345.17 72.015C345.32 71.8337 345.405 71.5564 345.426 71.2044V71.2151Z" fill="#1E1E1E"/>
<path d="M494.445 26.7432C490.776 22.616 476.826 20.2697 466.076 26.7432C466.994 17.9555 460.893 1.07323 450.772 0.401351C450.772 0.401351 466.29 0.0920736 480.036 10.5755C493.783 21.0589 494.445 26.7539 494.445 26.7539V26.7432Z" fill="#F2F4FF" stroke="#69315E" stroke-width="0.799855" stroke-linecap="round" stroke-linejoin="round"/>
<path d="M346.951 168.53H341.843C338.569 168.53 335.902 165.864 335.902 162.59V157.481C335.902 154.207 338.569 151.541 341.843 151.541H346.951C350.225 151.541 352.891 154.207 352.891 157.481V162.59C352.891 165.864 350.225 168.53 346.951 168.53ZM341.843 154.335C340.104 154.335 338.696 155.743 338.696 157.481V162.59C338.696 164.328 340.104 165.736 341.843 165.736H346.951C348.689 165.736 350.097 164.328 350.097 162.59V157.481C350.097 155.743 348.689 154.335 346.951 154.335H341.843Z" fill="#D0D6FF"/>
<path d="M470.034 184.827C457.588 185.595 378.413 185.52 372.889 185.339C367.354 185.158 366.021 185.19 362.885 184.998C361.136 184.934 359.75 183.494 359.803 181.798C359.857 180.092 361.339 178.748 363.099 178.812C363.099 178.812 365.434 178.887 373.102 179.154C397.674 179.985 470.247 178.642 470.247 178.642C471.996 178.706 473.383 180.145 473.329 181.841C473.276 183.547 471.794 184.891 470.034 184.827Z" fill="#D0D6FF"/>
<path d="M346.951 190.544H341.843C338.569 190.544 335.902 187.877 335.902 184.603V179.495C335.902 176.221 338.569 173.555 341.843 173.555H346.951C350.225 173.555 352.891 176.221 352.891 179.495V184.603C352.891 187.877 350.225 190.544 346.951 190.544ZM341.843 176.349C340.104 176.349 338.696 177.757 338.696 179.495V184.603C338.696 186.342 340.104 187.749 341.843 187.749H346.951C348.689 187.749 350.097 186.342 350.097 184.603V179.495C350.097 177.757 348.689 176.349 346.951 176.349H341.843Z" fill="#D0D6FF"/>
<path d="M420.24 207.189C407.794 207.957 378.882 207.883 373.347 207.701C367.812 207.52 366.479 207.552 363.343 207.36C361.594 207.296 360.208 205.856 360.261 204.161C360.315 202.454 361.797 201.111 363.557 201.175C363.557 201.175 365.892 201.249 373.56 201.516C398.132 202.348 420.453 201.004 420.453 201.004C422.202 201.068 423.588 202.508 423.535 204.203C423.482 205.91 421.999 207.253 420.24 207.189Z" fill="#D0D6FF"/>
<path d="M347.421 212.907H342.312C339.038 212.907 336.372 210.241 336.372 206.967V201.858C336.372 198.584 339.038 195.918 342.312 195.918H347.421C350.695 195.918 353.361 198.584 353.361 201.858V206.967C353.361 210.241 350.695 212.907 347.421 212.907ZM342.312 198.712C340.574 198.712 339.166 200.12 339.166 201.858V206.967C339.166 208.705 340.574 210.113 342.312 210.113H347.421C349.159 210.113 350.567 208.705 350.567 206.967V201.858C350.567 200.12 349.159 198.712 347.421 198.712H342.312Z" fill="#D0D6FF"/>
<path d="M406.216 273.939C324.172 275.368 252.089 271.07 252.089 271.07C264.055 229.702 269.174 98.1098 267.243 29.1943H454.751C458.899 118.885 456.094 209.919 450.453 229.713C444.811 249.506 430.158 272.51 406.226 273.939H406.216Z" fill="white" stroke="#69315E" stroke-width="0.799855" stroke-miterlimit="10"/>
<path d="M406.215 273.938C406.215 273.938 421.433 262.655 422.031 233.7C431.128 235.897 443.061 233.359 450.441 229.701C450.441 229.701 446.666 247.053 436.119 257.589C425.582 268.126 416.965 273.768 406.204 273.928L406.215 273.938Z" fill="#F2F4FF" stroke="#69315E" stroke-width="0.799855" stroke-linecap="round" stroke-linejoin="round"/>
<path d="M370.616 136.759H286.439C288.498 112.358 289.244 83.8725 288.252 52.0703H371.512C371.512 52.0703 373.389 111.974 370.627 136.759H370.616Z" fill="#F2F4FF"/>
<path d="M431.918 218.781C411.388 221.415 382.551 220.604 382.551 220.604C384.801 196.566 386.966 172.666 387.03 151.006C387.03 151.006 406.056 152.094 436.045 150.377C436.557 172.549 434.701 202.773 431.928 218.791L431.918 218.781Z" fill="#F2F4FF"/>
<path d="M424.228 65.7001C419.376 66.0201 394.836 66.5106 391.253 66.0201C387.019 65.5295 383.606 62.874 383.606 59.0347C383.606 55.1953 386.454 52.0493 391.253 52.0493C396.052 52.0493 413.681 52.0493 424.228 51.7293C428.974 51.5054 431.875 54.8754 431.875 58.7147C431.875 62.554 429.081 65.3802 424.228 65.7001Z" fill="#69315E"/>
<path d="M321.367 161.298C317.058 161.479 295.281 161.479 292.103 161.032C288.349 160.573 285.363 158.355 285.427 155.241C285.48 152.116 288.061 149.61 292.306 149.684C296.55 149.759 312.206 150.047 321.57 149.951C325.793 149.844 328.31 152.628 328.246 155.742C328.192 158.867 325.675 161.117 321.367 161.298Z" fill="#69315E"/>
<path d="M434.285 84.5766C423.951 85.7498 399.049 86.2297 394.431 86.2297C389.813 86.2297 388.704 86.3043 386.091 86.2297C384.63 86.2297 383.436 84.8539 383.436 83.1689C383.436 81.4839 384.63 80.1081 386.091 80.1081C386.091 80.1081 388.043 80.1081 394.431 80.1081C414.918 80.1081 434.285 78.4551 434.285 78.4551C435.746 78.4551 436.941 79.8308 436.941 81.5159C436.941 83.2009 435.746 84.5766 434.285 84.5766Z" fill="#D0D6FF"/>
<path d="M433.901 102.376C423.567 103.549 398.665 104.018 394.047 104.018C389.429 104.018 388.32 104.093 385.707 104.018C384.246 104.018 383.052 102.642 383.052 100.968C383.052 99.2935 384.246 97.9178 385.707 97.9178C385.707 97.9178 387.659 97.9178 394.047 97.9178C414.534 97.9178 433.901 96.2754 433.901 96.2754C435.362 96.2754 436.557 97.6511 436.557 99.3255C436.557 101 435.362 102.376 433.901 102.376Z" fill="#D0D6FF"/>
<path d="M367.108 183.022C356.785 183.897 332 183.555 327.414 183.395C322.828 183.235 321.719 183.278 319.117 183.118C317.667 183.065 316.526 181.604 316.579 179.855C316.643 178.106 317.88 176.719 319.33 176.762C319.33 176.762 321.271 176.826 327.628 177.039C347.997 177.722 367.322 176.666 367.322 176.666C368.772 176.719 369.913 178.18 369.86 179.929C369.796 181.678 368.559 183.065 367.108 183.022Z" fill="#D0D6FF"/>
<path d="M365.945 203.552C355.622 204.427 330.837 204.086 326.251 203.926C321.665 203.766 320.556 203.808 317.954 203.648C316.504 203.595 315.363 202.134 315.416 200.385C315.48 198.636 316.717 197.25 318.167 197.292C318.167 197.292 320.108 197.356 326.465 197.57C346.834 198.252 366.159 197.196 366.159 197.196C367.609 197.25 368.75 198.711 368.697 200.46C368.633 202.209 367.396 203.595 365.945 203.552Z" fill="#D0D6FF"/>
<path d="M364.164 226.78C347.037 227.43 305.881 226.534 298.256 226.278C290.631 226.022 288.797 226.044 284.477 225.809C282.067 225.724 280.137 224.231 280.201 222.482C280.265 220.733 282.28 219.368 284.701 219.453C284.701 219.453 287.922 219.56 298.48 219.922C332.33 221.063 364.388 220.423 364.388 220.423C366.798 220.509 368.729 222.002 368.665 223.751C368.601 225.5 366.585 226.865 364.164 226.78Z" fill="#D0D6FF"/>
<path d="M360.751 247.906C343.624 248.556 302.468 247.66 294.843 247.404C287.218 247.148 285.383 247.17 281.064 246.935C278.654 246.85 276.724 245.357 276.788 243.608C276.852 241.859 278.867 240.494 281.288 240.579C281.288 240.579 284.509 240.686 295.067 241.048C328.917 242.189 360.975 241.549 360.975 241.549C363.385 241.635 365.316 243.128 365.252 244.877C365.188 246.626 363.172 247.991 360.751 247.906Z" fill="#D0D6FF"/>
<path d="M409.479 122.809C398.782 123.726 390.57 123.417 385.387 123.246C383.926 123.246 382.731 121.903 382.731 120.26C382.731 118.618 383.926 117.274 385.387 117.274C394.249 117.477 402.611 117.466 409.479 116.837C410.94 116.837 412.134 118.181 412.134 119.823C412.134 121.465 410.94 122.809 409.479 122.809Z" fill="#D0D6FF"/>
<path d="M292.946 199.243C293.905 193.932 294.119 187.491 294.012 180.569C294.012 180.441 294.012 180.335 294.012 180.26C294.012 180.185 293.969 180.111 293.905 180.036C293.842 179.961 293.746 179.919 293.618 179.908C293.052 179.876 292.231 179.833 291.154 179.769C290.077 179.705 289.32 179.748 288.84 179.727C288.68 180.633 289.021 178.554 288.605 181.273C288.2 183.993 287.891 185.347 287.688 185.336C287.229 185.315 286.835 185.123 286.494 184.771C286.152 184.419 285.907 183.993 285.747 183.502C285.587 183.011 285.47 182.553 285.406 182.126C285.342 181.7 285.31 181.38 285.32 181.145C285.384 180.015 285.992 176.581 286.184 176.122H286.291C286.291 176.122 286.366 176.122 286.398 176.133C289.96 176.645 291.069 176.847 296.422 177.093C301.776 177.338 304.826 177.125 308.431 177.018H308.538C308.538 177.018 308.612 177.018 308.644 177.029C308.783 177.508 308.676 180.623 308.612 181.753C308.602 181.988 308.538 182.308 308.42 182.724C308.303 183.139 308.143 183.577 307.93 184.046C307.716 184.515 307.332 184.952 306.959 185.262C306.586 185.571 306.17 185.72 305.711 185.688C305.509 185.678 305.349 184.291 305.253 181.55C305.157 178.799 305.327 181.252 305.274 180.335C304.805 180.303 302.192 180.399 301.115 180.335C300.038 180.271 299.217 180.228 298.651 180.196C298.459 180.185 298.331 180.228 298.278 180.335C298.225 180.441 298.193 180.591 298.182 180.804C298.235 187.896 297.958 194.241 297.126 199.265C297.126 199.446 297.126 199.584 297.126 199.691C297.137 199.798 297.169 199.915 297.233 200.054C297.286 200.192 297.404 200.214 297.564 200.288C297.723 200.363 298.363 200.31 298.63 200.32C299.185 200.352 299.579 200.374 299.963 200.534C300.347 200.694 300.539 200.928 300.518 201.216C300.422 202.816 300.176 203.786 299.75 204.128C297.947 203.893 296.07 204.01 294.78 203.936C293.49 203.861 291.943 204.021 290.088 204.053C289.714 203.669 289.565 202.677 289.661 201.078C289.682 200.79 289.885 200.587 290.29 200.459C290.695 200.331 291.175 200.288 291.73 200.32C292.199 200.352 292.519 200.267 292.668 200.075C292.828 199.883 292.914 199.606 292.935 199.243H292.946Z" fill="#69315E"/>
<path d="M359.856 112.422C359.856 103.57 352.07 82.6562 340.755 82.6562C330.357 82.6562 322.508 101.064 322.508 101.064C322.508 101.064 318.956 92.3398 312.312 92.3398C303.61 92.3398 298.704 106.567 298.704 112.411H359.845L359.856 112.422Z" fill="#D0D6FF"/>
<path d="M314.764 85.6848C318.469 85.6848 321.472 82.6815 321.472 78.9767C321.472 75.2719 318.469 72.2686 314.764 72.2686C311.059 72.2686 308.056 75.2719 308.056 78.9767C308.056 82.6815 311.059 85.6848 314.764 85.6848Z" fill="#D0D6FF"/>
<path d="M429.7 196.257C429.7 190.615 424.73 177.263 417.51 177.263C410.877 177.263 405.864 189.015 405.864 189.015C405.864 189.015 403.593 183.448 399.359 183.448C393.802 183.448 390.667 192.535 390.667 196.257H429.689H429.7Z" fill="#D0D6FF"/>
<path d="M400.915 179.204C403.283 179.204 405.202 177.285 405.202 174.917C405.202 172.549 403.283 170.63 400.915 170.63C398.547 170.63 396.628 172.549 396.628 174.917C396.628 177.285 398.547 179.204 400.915 179.204Z" fill="#D0D6FF"/>
<path d="M30.8711 353.309V299.731L63.9565 354.638L30.8711 353.309Z" fill="#D0D6FF"/>
<path d="M0.400391 354.029H369.71" stroke="#1E1E1E" stroke-width="0.799855" stroke-linecap="round" stroke-linejoin="round"/>
<path d="M0.400391 361.308H370.592" stroke="#1E1E1E" stroke-width="0.799855" stroke-linecap="round" stroke-linejoin="round"/>
<path d="M288.673 378.571C313.798 365.083 333.942 350.54 344.3 333.116C311.078 334.556 251.266 329.489 247.503 329.489C226.142 340.543 209.499 345.97 196.024 348.118L288.673 378.583V378.571Z" fill="#EEE8E3"/>
<path d="M229.68 323.316L247.49 329.476L281.767 331.65L312.704 333.053C312.704 333.053 316.467 339.437 318.765 341.734C320.566 343.535 325.124 345.286 325.124 343.436C325.124 341.585 322.578 338.12 321.671 333.376C321.361 331.736 319.696 324.136 316.144 323.316C312.592 322.496 294.41 325.862 294.41 325.862C291.442 324.198 288.263 323.44 284.922 323.316L246.347 295.348C246.347 295.348 242.857 291.113 231.891 304.339C220.912 317.566 229.68 323.316 229.68 323.316Z" fill="#B58066"/>
<path d="M288.673 378.571L196.024 348.106C173.744 355.496 147.166 357.943 119.62 359.284C148.098 376.944 176.315 390.283 204.147 397.064C237.071 396.53 263.449 388.221 288.673 378.559V378.571Z" fill="#E4E0DB"/>
<path d="M139.094 175.214C133.506 189.385 136.983 201.457 136.983 201.457C136.983 201.457 138.573 221.651 126.153 221.651C113.734 221.651 93.0556 195.421 93.0556 195.421L85.9766 172.942C85.9766 172.942 94.4839 164.906 99.3026 151.916C104.121 138.925 107.027 125.872 107.027 125.872L112.38 128.244C112.38 128.244 111.66 139.968 116.205 151.27C120.751 162.571 126.451 169.837 139.094 175.214Z" fill="#A46E52"/>
<path d="M136.982 201.445C134.907 207.32 130.933 213.095 126.388 217.64C122.178 209.17 116.03 201.358 108.404 194.031L85.9749 172.918C85.9749 172.918 45.8602 188.566 36.26 197.31C26.6598 206.053 19.4192 227.563 17.6184 236.89C15.8176 246.217 25.2688 282.209 28.858 293.734C31.6896 302.825 46.2576 341.934 50.9149 348.442C55.5722 354.949 90.9551 360.613 94.9045 360.613C98.8539 360.613 103.163 358.725 103.163 358.725C103.163 358.725 91.6382 354.465 94.9045 339.611C98.1708 324.758 110.007 321.678 110.007 321.678L159.436 340.94H164.342C164.342 340.94 166.838 307.06 168.663 296.914C170.489 286.767 173.83 269.951 173.83 269.951C173.83 269.951 190.658 295.709 200.01 303.322C209.35 310.935 219.596 320.051 222.626 321.765C225.656 323.479 229.693 323.305 229.693 323.305C229.693 323.305 221.906 317.418 231.903 304.328C241.888 291.238 248.57 296.938 248.57 296.938C248.57 296.938 247.241 291.896 244.894 289.549C242.547 287.202 223.955 275.204 223.955 275.204C223.955 275.204 193.726 206.972 185.33 197.297C176.935 187.623 150.63 177.613 150.63 177.613L138.025 177.091L136.994 201.433L136.982 201.445Z" fill="#8897FE"/>
<path d="M136.982 201.444C136.982 201.444 140.236 190.241 142.77 191.955C145.303 193.669 154.084 207.703 154.084 207.703C154.63 205.132 150.619 187.869 146.52 178.803L138.013 177.102C134.511 186.068 134.473 194.091 136.982 201.444Z" fill="#69315E"/>
<path d="M108.405 194.043C104.095 194.9 97.8733 205.717 91.9244 215.106C85.6775 204.835 80.2005 193.335 78.4121 175.985C82.8831 169.216 87.292 162.112 91.5643 154.201C89.9373 163.466 98.7179 178.506 108.417 194.043H108.405Z" fill="#69315E"/>
<path d="M103.153 358.736L159.748 360.623L169.733 361.381C169.733 361.381 175.719 367.69 183.109 369.404C190.511 371.13 210.444 370.944 212.369 369.404C214.294 367.864 214.48 364.771 214.48 364.771C214.48 364.771 216.256 364.846 216.728 364.064C217.2 363.281 217.262 360.586 217.064 360.064C216.865 359.543 216.468 359.27 216.468 359.27C216.468 359.27 217.349 358.86 217.635 358.264C217.921 357.668 217.921 355.035 217.921 353.904C217.921 352.774 216.07 352.253 216.07 352.253C216.07 352.253 217.809 352.638 217.921 351.992C218.032 351.346 218.181 349.247 217.921 348.154C217.66 347.061 216.728 346.204 215.474 345.31C214.22 344.416 199.714 338.306 196.932 337.312C194.15 336.319 191.567 335.896 187.99 335.896C184.413 335.896 170.23 342.578 170.23 342.578C170.23 342.578 168.628 340.901 165.213 340.603C163.511 340.454 159.413 340.951 159.413 340.951L109.983 321.688C109.983 321.688 98.1973 324.781 94.8814 339.622C91.5654 354.463 103.14 358.736 103.14 358.736H103.153Z" fill="#B58066"/>
<path d="M36.5469 203.357C36.5469 203.357 56.8154 212.237 67.6079 230.245C78.4003 248.254 84.312 310.388 84.312 310.388" stroke="#69315E" stroke-width="0.799855" stroke-linecap="round" stroke-linejoin="round"/>
<path d="M60.4287 333.872C60.4287 333.872 61.2484 322.197 70.1655 315.652C80.4985 308.076 86.5964 310.386 92.3963 311.951C97.4883 313.33 104.99 315.913 106.84 317.764C108.691 319.614 109.995 321.701 109.995 321.701" stroke="#69315E" stroke-width="0.799855" stroke-linecap="round" stroke-linejoin="round"/>
<path d="M180.662 215.104C180.947 230.405 178.464 248.935 173.831 269.949" stroke="#69315E" stroke-width="0.799855" stroke-linecap="round" stroke-linejoin="round"/>
<path d="M126.389 217.652C126.389 217.652 129.928 236.344 131.456 264.076C132.983 291.809 131.456 330.061 131.456 330.061" stroke="#69315E" stroke-width="0.799855" stroke-linecap="round" stroke-linejoin="round"/>
<path d="M199.663 348.106L216.069 352.267" stroke="#A46E52" stroke-width="0.799855" stroke-miterlimit="10" stroke-linecap="round"/>
<path d="M200.185 356.377L216.466 359.283" stroke="#A46E52" stroke-width="0.799855" stroke-miterlimit="10" stroke-linecap="round"/>
<path d="M200.185 364.039L214.479 364.784" stroke="#A46E52" stroke-width="0.799855" stroke-miterlimit="10" stroke-linecap="round"/>
<path d="M180.688 310.225L177.26 312.907L199.664 339.895L206.135 341.273L180.688 310.225Z" fill="#6A2A2A"/>
<path d="M180.687 310.226C180.687 310.226 179.557 309.393 178.191 310.511C176.824 311.629 177.259 312.908 177.259 312.908C177.259 312.908 178.662 313.355 179.805 312.461C180.948 311.567 180.687 310.226 180.687 310.226Z" fill="#592626"/>
<path d="M30.8711 299.731C30.8711 299.731 45.3521 344.032 50.916 348.453C56.48 352.874 63.9565 354.638 63.9565 354.638" stroke="#69315E" stroke-width="0.799855" stroke-linecap="round" stroke-linejoin="round"/>
<path d="M91.5507 154.201C94.5935 151.568 99.3004 151.903 99.3004 151.903C97.7604 156.486 95.4877 160.609 92.8175 164.497C92.8175 164.497 90.8055 158.461 91.5631 154.201H91.5507Z" fill="#D0D6FF"/>
<path d="M119.607 359.282V364.772C141.987 379.215 171.93 391.983 204.134 404.265C224.601 403.632 256.581 392.777 288.661 381.836V378.557C257.401 389.3 227.88 397.46 204.134 397.062C170.85 389.002 145.316 374.061 119.607 359.282Z" fill="#BBB5AE"/>
<path d="M288.674 381.848C307.216 372.384 325.758 359.841 344.3 344.229V333.102C332.875 350.439 314.332 365.591 288.674 378.557V381.835V381.848Z" fill="#DACEC0"/>
<path d="M223.943 275.203C223.943 275.203 219.534 273.265 213.014 275.935C206.493 278.605 202.42 285.287 202.42 285.287" stroke="#69315E" stroke-width="0.799855" stroke-linecap="round" stroke-linejoin="round"/>
<path d="M184.822 102.698C185.915 107.927 183.629 119.737 182.425 124.693C181.22 129.648 174.799 139.745 172.626 142.328C172.626 145.793 172.824 150.823 169.347 159.095C165.87 167.366 154.978 180.431 143.229 178.693C135.169 176.954 122.104 170.856 114.267 151.258C106.43 131.66 117.31 103.356 132.561 93.992C147.799 84.6278 159.126 82.8891 169.583 86.1554C180.04 89.4217 183.741 97.4819 184.822 102.71V102.698Z" fill="#B58066"/>
<path d="M139.168 110.484C138.572 109.888 147.837 107.529 151.55 108.386C155.264 109.242 163.883 116.806 165.162 118.097C166.441 119.389 163.61 121.364 161.511 120.221C159.412 119.079 154.556 112.385 149.104 111.279C143.652 110.174 139.764 111.068 139.168 110.472V110.484Z" fill="#241E20"/>
<path d="M182.872 122.755C182.872 122.755 179.655 120.221 175.619 121.128C173.483 121.674 173.098 122.171 172.303 122.755C171.508 123.338 170.986 125.027 171.756 125.027C172.526 125.027 173.073 124.319 176.377 123.761C179.68 123.202 182.412 124.68 182.412 124.68C182.586 124.009 182.748 123.363 182.859 122.742L182.872 122.755Z" fill="#241E20"/>
<path d="M168.864 136.627C169.05 136.515 169.87 138.378 171.844 139.235C173.496 139.906 174.912 139.148 174.515 139.459C174.241 139.682 173.049 140.315 171.546 139.62C169.51 138.813 168.665 136.739 168.851 136.627H168.864Z" fill="#241E20"/>
<path d="M179.022 128.977C178.935 129.325 175.768 128.095 172.427 129.437C169.695 130.592 168.937 133.162 169.024 132.33C169.086 131.734 169.732 129.809 172.315 128.853C175.669 127.4 179.109 128.629 179.022 128.977Z" fill="#241E20"/>
<path d="M158.741 128.927C158.48 128.927 159.411 125.338 156.567 123.177C150.134 119.376 142.434 121.115 141.478 120.805C140.646 120.531 151.053 118.817 156.89 122.804C159.747 124.953 159.002 128.927 158.741 128.927Z" fill="#241E20"/>
<path d="M156.145 134.479C156.145 134.38 153.475 134.74 150.979 134.392C147.75 133.809 143.664 131.126 143.54 131.387C143.415 131.66 147.874 134.479 150.656 134.889C153.127 135.274 156.133 134.765 156.133 134.479H156.145Z" fill="#241E20"/>
<path d="M169.907 126.791C169.907 126.791 168.354 128.368 167.671 131.324C166.988 134.28 170.813 150.015 163.97 153.542C161.201 154.971 157.264 151.779 154.407 150.09C152.532 148.972 148.508 147.929 150.011 144.203C151.327 140.924 156.73 142.949 156.73 142.949" stroke="#241E20" stroke-width="0.799855" stroke-linecap="round" stroke-linejoin="round"/>
<path d="M141.329 155.094C141.329 155.094 141.727 159.143 145.254 163.08C148.781 167.017 153.773 167.837 157.474 166.806C161.175 165.775 161.796 162.919 161.796 162.919C160.12 163.254 158.791 162.124 157.251 161.975C155.711 161.826 154.767 161.714 153.475 161.639C152.184 161.565 151.563 160.472 149.911 159.342C148.259 158.212 146.769 159.267 144.31 157.814C141.851 156.361 141.329 155.082 141.329 155.082V155.094Z" fill="#BA705E"/>
<path d="M141.329 155.096C142.323 156.748 142.199 156.276 144.31 157.99C145.974 159.008 148.793 159.219 149.911 159.356C151.712 159.567 152.184 161.244 153.475 161.653C154.767 162.063 155.549 161.889 156.816 161.889C158.22 161.889 159.288 162.721 161.796 162.721C163.013 162.721 163.634 160.933 162.641 160.945C162.157 160.945 161.61 160.647 161.61 160.647C160.567 159.604 160.902 159.393 159.3 158.735C158.058 158.226 156.27 159.095 155.487 159.045C154.705 158.996 155.14 157.443 153.401 156.462C151.401 155.332 148.408 155.854 146.073 155.506C144.372 155.245 143.155 154.202 142.434 153.779C141.404 153.159 140.957 154.487 141.329 155.108V155.096Z" fill="#BA705E"/>
<path d="M184.329 112.011C184.329 112.011 185.798 100.084 172.523 93.7758C159.247 87.4675 144.491 92.5852 142.382 94.6201C140.273 96.655 145.461 101.049 142.84 101.531C140.218 102.013 129.613 105.564 121.305 113.534C119.303 115.459 119.998 106.362 119.998 106.362C116.198 111.911 112.475 118.764 110.647 128.4C109.41 131.886 106.574 138.476 102.577 142.342C100.138 127.617 97.5335 120.038 98.7486 96.1099C97.5304 93.2042 98.1299 89.8812 99.7819 89.0959C98.0088 87.1093 98.8117 83.8584 100.802 83.22C99.8132 81.1485 100.487 77.6907 102.617 76.9268C100.27 73.1774 103.435 70.4819 103.435 70.4819C106.835 64.8049 160.831 53.4258 171.979 67.3279C183.126 81.2299 182.586 96.6865 185.802 100.112C190.308 104.91 184.332 112.04 184.332 112.04L184.308 112.031L184.329 112.011Z" fill="#1E1E1E"/>
<path d="M161.56 162.981C160.529 163.056 159.834 163.068 159.163 162.696C158.828 162.509 158.517 162.336 158.331 162.311C157.834 162.224 157.151 162.348 156.493 162.46C155.586 162.621 154.655 162.795 153.922 162.497C153.152 162.187 152.494 161.603 151.861 161.032C151.413 160.622 150.991 160.249 150.581 160.038C149.749 159.591 148.408 159.293 147.104 158.995C145.887 158.721 144.769 158.386 144.16 158.026C142.484 157.057 141.987 156.325 141.751 155.989C141.652 155.853 141.105 154.909 141.18 154.747C141.229 154.648 141.49 155.194 141.689 155.468C142.31 156.325 142.993 156.796 144.459 157.566C145.005 157.852 146.085 158.138 147.253 158.399C148.594 158.697 149.973 159.007 150.879 159.491C151.351 159.74 151.798 160.15 152.27 160.572C152.866 161.106 153.475 161.665 154.146 161.926C154.717 162.149 155.561 162 156.369 161.851C157.077 161.727 157.809 161.59 158.418 161.702C158.704 161.752 159.027 161.938 159.436 162.162C160.082 162.522 160.716 162.609 161.585 162.609C161.759 162.609 162.305 162.447 162.305 162.621C162.305 162.795 161.697 162.969 161.535 162.994L161.56 162.981Z" fill="#241E20"/>
<path d="M120.613 106.474C120.613 106.474 121.544 98.3141 114.292 96.6375C107.039 94.9608 100.705 103.518 102.381 115.813C104.058 128.108 112.391 128.245 112.391 128.245C114.453 120.582 117.359 113.106 120.625 106.486L120.613 106.474Z" fill="#B58066"/>
<path d="M139.316 123.537C139.316 123.537 150.904 122.382 155.052 124.568C159.2 126.754 157.436 132.951 157.436 132.951C157.436 132.951 154.716 133.187 150.991 132.256C147.265 131.324 139.329 123.525 139.329 123.525L139.316 123.537Z" fill="white"/>
<path d="M138.013 122.991C138.013 122.991 152.444 121.724 156.071 124.543C159.697 127.362 157.747 132.877 157.437 132.988C157.126 133.1 158.679 128.368 154.903 125.711C151.115 123.053 141.08 123.637 140.161 123.637C138.646 123.637 138.025 122.991 138.025 122.991H138.013Z" fill="#241E20"/>
<path d="M156.729 132.989C156.729 132.777 153.537 132.989 150.643 131.747C146.893 129.834 141.018 125.214 141.503 125.872C141.987 126.53 146.98 130.828 150.221 132.256C153.103 133.572 156.729 133.212 156.729 132.989Z" fill="#241E20"/>
<path d="M151.911 124.357C151.911 124.357 149.427 124.357 148.247 126.555C147.067 128.754 148.396 130.654 148.396 130.654L150.532 131.871L152.631 132.666C152.631 132.666 155.289 131.275 155.736 129.697C156.183 128.12 156.009 126.68 156.009 126.68C155.053 125.4 153.674 124.643 151.936 124.345L151.911 124.357Z" fill="#241E20"/>
<path d="M168.664 134.504C168.664 134.504 172.651 130.605 175.805 130.965C178.96 131.325 178.96 132.517 178.96 132.517C177.941 134.405 176.861 136.206 175.731 137.932C174.601 137.982 173.532 137.982 172.787 137.796C172.787 137.796 171.906 137.572 170.9 137.1C169.894 136.628 168.664 134.529 168.664 134.529V134.504Z" fill="white"/>
<path d="M168.863 135.025C169.037 134.888 170.043 136.664 172.092 137.31C173.806 137.819 176.129 137.72 175.769 138.068C175.52 138.316 173.409 138.254 171.844 137.72C169.733 137.124 168.69 135.149 168.863 135.025Z" fill="#241E20"/>
<path d="M168.478 134.281C168.876 133.697 170.192 131.611 173.732 130.567C177.271 129.524 179.78 131.325 179.78 131.325C180.091 131.548 179.221 132.629 178.96 132.517C178.96 132.517 176.65 131.089 173.633 131.747C170.615 132.405 168.59 134.889 168.379 135.1C168.168 135.312 168.069 134.864 168.466 134.281H168.478Z" fill="#241E20"/>
<path d="M175.62 131.386C175.62 131.386 175.272 133.411 174.465 134.814C173.657 136.217 171.521 137.174 171.26 137.248C168.777 136.217 168.652 134.789 168.652 134.789C168.652 134.789 169.335 133.212 171.434 132.107C173.533 131.001 175.607 131.374 175.607 131.374L175.62 131.386Z" fill="#241E20"/>
<path d="M110.256 100.525C110.256 100.525 113.423 98.3511 115.596 100.525C117.77 102.698 117.149 113.466 117.149 113.466C114.714 115.577 113.907 117.974 114.093 120.57C114.093 120.57 112.467 121.923 110.815 120.284" stroke="#241E20" stroke-width="0.799855" stroke-linecap="round" stroke-linejoin="round"/>
<path d="M111.659 107.007C111.659 107.007 113.075 105.84 114.64 107.392C116.205 108.945 116.205 114.372 116.205 114.372" stroke="#241E20" stroke-width="0.799855" stroke-linecap="round" stroke-linejoin="round"/>
<path d="M115.883 82.2388C113.275 83.8604 110.129 83.1137 108.527 80.0572C104.341 81.0721 102.984 77.7589 104.154 74.7724C102.762 74.3057 102.528 70.7358 104.715 70.3158C103.756 68.0876 104.528 65.311 106.925 64.856C105.92 61.2862 109.042 57.2146 113.31 57.7863C114.608 54.0414 116.959 54.0531 119.812 55.1614C119.812 52.0232 124.478 49.7132 127.53 52.7581C129.471 48.5699 136.593 48.5699 137.867 51.7315C139.06 49.2932 144.299 47.8466 147.304 51.4398C149.456 48.5583 156.098 49.7132 157.887 52.8165C161.021 51.0082 165.149 52.5248 166.295 55.6164C169.581 54.8581 172.961 56.783 172.961 59.7112C175.545 59.0579 177.989 61.8578 177.288 63.5961C179.72 63.1061 183.205 64.961 183.205 68.5542C186.339 68.5542 187.496 70.9808 186.806 72.7191C190.864 73.4191 191.8 76.9773 191.157 79.8822C194.232 80.9321 194.15 84.712 192.992 85.8553C194.77 86.6136 194.957 90.6501 193.18 91.7001C195.39 92.2834 195.32 95.6316 194.349 96.5883C195.577 97.8132 194.992 101.173 192.642 101.581C193.53 104.498 191.519 106.645 189.426 105.863C188.677 107.823 185.672 108.535 184.433 106.108C182.947 108.546 179.264 107.683 177.568 105.466C176.247 107.263 172.645 106.388 172.166 104.171C171.125 105.91 167.535 105.151 167.219 103.075C165.921 104.37 162.916 103.891 162.004 101.57C159.922 102.9 155.174 101.161 154.718 98.7348C152.929 100.52 149.491 99.3648 149.047 96.6116C146.439 99.2132 141.773 97.5799 140.732 94.2433C137.201 96.9849 132.909 93.9633 133.295 90.6501C130.945 92.0617 128.618 91.1168 127.53 88.3869C125.063 89.3552 123.309 88.8535 122.35 86.077C118.07 88.1886 115.286 84.3853 115.883 82.2388Z" fill="#1E1E1E"/>
<path d="M111.693 131.69C113.33 132.701 114.666 133.908 114.433 136.194C115.922 135.872 117.523 137.086 118.201 138.393C120.885 138.586 122.24 139.489 122.765 141.999C124.894 141.951 126.575 142.775 127.638 144.801C128.916 143.42 131.928 143.494 132.548 145.39C134.492 142.758 138.483 144.853 138.954 146.99C140.739 145.682 143.959 145.47 144.552 148.17C145.427 146.593 149.334 147.555 149.49 149.707C151.491 148.862 154.154 150.133 154.399 152.345C156.332 151.529 158.398 152.339 159.006 154.121C161.342 153.134 164.763 155.471 164.418 156.913C167.224 155.401 169.771 158.433 168.772 160.003C170.149 160.995 169.927 164.603 167.472 165.639C168.524 167.294 167.171 169.963 165.759 170.084C165.825 172.105 164.032 175.515 161.459 174.523C161.847 176.437 160.012 179.152 157.096 178.028C156.497 180.458 153.777 181.636 150.575 180.158C149.746 182.309 145.492 181.661 144.956 179.838C144.029 182.061 141.503 182.078 140.082 180.105C137.259 181.04 134.397 179.774 133.342 177.507C130.955 177.714 128.983 177.28 128.069 175.231C125.019 174.856 122.92 173.219 122.903 170.415C119.814 169.958 117.718 168.566 117.649 165.24C114.263 165.591 111.919 162.068 113.848 159.145C110.57 158.303 110.698 154.428 112.099 152.728C109.546 152.233 109.822 149.216 111.19 147.965C107.969 147.158 107.811 142.929 109.673 141.094C107.05 138.915 109.23 132.75 111.689 131.701L111.693 131.69ZM138.16 153.689C139.645 154.181 140.16 156.606 138.625 158.214C139.458 158.793 140.674 160.239 140.171 161.946C141.972 162.274 142.456 163.831 142.4 164.706C144.763 164.272 146.596 165.359 148.036 167.502C150.029 166.967 151.752 167.645 153.34 169.004C154.914 167.805 155.886 167.84 157.295 168.383C157.919 167.456 159.316 166.243 160.505 166.701C161.302 164.632 162.84 164.112 163.895 163.894C163.211 162.381 163.535 160.7 164.315 159.847C162.911 160.093 161.114 158.803 160.654 157.295C159.109 158.234 156.719 157.096 156.254 155.382C154.946 155.855 151.451 154.916 150.975 153.266C149.65 154.33 147.405 153.913 146.517 152.674C144.792 153.68 142.887 153.108 141.413 151.346C141.489 153.194 139.667 153.904 138.176 153.682L138.16 153.689Z" fill="#1E1E1E"/>
</svg>
